<?xml version="1.0" ?><svg id="Layer_1" style="enable-background:new 0 0 362.618 376.829;" version="1.1" viewBox="0 0 362.618 376.829" xml:space="preserve" xmlns="http://www.w3.org/2000/svg" xmlns:xlink="http://www.w3.org/1999/xlink"><g><polygon points="340.842,114.281 295.431,0 289.189,2.48 336.632,121.875 340.842,117.233  "/><path d="M304.414,102.874l3.825-10.654l5.519,9.882l15.557,27.841l3.9-4.3L284.945,4.167L271.99,22.558l9.142,19.559l-1.75,4.75   l-9.983-20.631l-17.775,25.232l32.465,81.701l8.658,2.215L304.414,102.874z M276.679,97.033l-0.506-2.682l0.786-1.143l2.257,0.758   l1.057,2.222L276.679,97.033z M277.772,69.794l-5.497-3.726l-0.625-3.316l5.18-2.596l5.65,1.986L277.772,69.794z M290.34,68.236   l2.128-1.067l2.322,0.816l-1.935,3.145l-2.259-1.531L290.34,68.236z"/><rect height="6.717" transform="matrix(0.6555 -0.7552 0.7552 0.6555 -143.5495 330.1326)" width="138.293" x="220.932" y="319.05"/><path d="M335.108,235.491l-0.851-0.116l-24.568,26.744l-7.926,8.627l-1.001-11.672l-2.446-28.617l-2.727-0.373l-6.254,7.205   l0.662,0.234l-12.026,22.68l2.953,1.394l2.572-5.519c5.153,1.941,8.083,7.516,6.611,12.936c-1.504,5.535-7.046,8.879-12.589,7.743   c0.039-0.128,0.089-0.25,0.124-0.38c0.73-2.689,0.58-5.408-0.271-7.855c0.146,1.343,0.059,2.734-0.316,4.117   c-1.609,5.933-7.723,9.436-13.656,7.827c-5.932-1.611-9.435-7.726-7.825-13.658c0.764-2.814,2.548-5.071,4.839-6.505   c-1.411,0.492-2.723,1.226-3.893,2.152c-1.634-2.494-2.243-5.644-1.401-8.748c1.562-5.758,7.499-9.16,13.257-7.597   c2.001,0.543,3.708,1.622,5.031,3.03l-4.228,4.505l2.393,2.224l16.195-19.135l0.39-0.461l-1.49-1.26l-11.019,11.74   c-1.74-2.144-4.135-3.79-7.004-4.569c-7.274-1.974-14.772,2.321-16.747,9.596c-1.227,4.517-0.031,9.119,2.792,12.433   c-1.255,1.459-2.223,3.202-2.76,5.183c-0.922,3.398-0.431,6.84,1.098,9.724l-30.085,34.66l1.456,5.121l25.235-6.117l-2,5.667   l-19.803,12.519l10.939,38.463l102.075-117.596v-6.914L335.108,235.491z M271.493,312.424l-1.702-3.694l0.722-1.936l3.537,0.279   l2.333,2.83L271.493,312.424z"/><polygon points="261.415,145.61 259.093,144.794 256.965,145.861 257.222,147.224 259.481,148.755  "/><polygon points="211.959,165.459 211.174,166.601 211.679,169.283 215.274,168.439 214.216,166.217  "/><polygon points="260.754,99.281 258.794,101.179 261.478,103.715 262.751,101.609 262.141,99.307  "/><polygon points="262.219,122.479 265.813,121.635 264.756,119.413 262.499,118.655 261.713,119.798  "/><polygon points="233.013,118.709 235.003,117.261 235.334,114.904 234.067,114.341 231.524,115.331  "/><polygon points="247.876,212.147 242.202,217.304 242.03,221.196 248.374,223.317 254.507,220.124  "/><polygon points="239.801,231.743 239.843,229.283 236.222,230.003 236.872,232.654 238.061,233.368  "/><polygon points="340.842,235.009 340.842,212.562 337.422,206.937 326.999,218.28 315.228,231.094 314.009,216.784    312.671,201.159 298.203,206.696 289.651,209.97 294.476,201.471 300.75,190.424 289.314,184.92 278.879,179.894 285.819,177.995    300.883,173.871 292.578,160.424 286.98,151.356 293.227,152.956 303.408,155.563 306.976,145.613 311.605,132.709    318.166,144.461 326.096,158.648 336.924,146.709 340.842,142.39 340.842,124.9 328.309,138.713 309.259,104.614 296.015,141.534    261.81,132.784 282.706,166.619 245.446,176.813 284.36,195.552 263.271,232.694 302.395,217.72 305.892,258.636 335.566,226.329     "/><path d="M241.028,127.341c-4.681-0.059-8.837,2.25-11.34,5.811c-1.726-0.85-3.656-1.352-5.708-1.377   c-7.358-0.091-13.396,5.798-13.488,13.155c-0.081,6.516,4.529,11.987,10.693,13.221c-0.055,0.46-0.089,0.926-0.095,1.4   c-0.09,7.178,5.656,13.069,12.835,13.16c7.178,0.088,13.07-5.658,13.159-12.836c0.002-0.146-0.014-0.289-0.017-0.434l16.836,3.124   l0.454-1.895l-13.743-3.289l-11.223-2.686l-0.612,3.207l5.987,1.111c-0.591,5.474-5.257,9.705-10.873,9.635   c-5.735-0.073-10.359-4.603-10.644-10.254c0.134,0.006,0.264,0.023,0.399,0.025c2.786,0.035,5.381-0.791,7.538-2.226   c-1.264,0.478-2.632,0.741-4.065,0.723c-6.147-0.075-11.067-5.12-10.992-11.267c0.077-6.146,5.122-11.067,11.268-10.991   c2.915,0.037,5.547,1.2,7.508,3.06c-0.829-1.243-1.868-2.33-3.057-3.232c2.007-2.205,4.904-3.583,8.12-3.543   c5.966,0.073,10.744,4.971,10.67,10.938c-0.026,2.073-0.644,3.996-1.677,5.628l-5.418-2.968l-1.555,2.873l10.092,4.871   l13.028,6.289l0.847-1.758l-14.122-7.734c1.641-2.221,2.636-4.951,2.674-7.924C254.599,133.622,248.566,127.435,241.028,127.341z"/><polygon points="340.842,184.029 339.031,181.575 334.007,183.324 334.565,188.1 337.329,188.552 340.842,186.008  "/><polygon points="308.992,158.48 309.976,159.457 312.705,159.44 312.518,155.752 310.142,156.395  "/><polygon points="259.018,196.815 256.643,197.457 255.493,199.542 256.477,200.52 259.205,200.502  "/><polygon points="335.672,166.188 328.372,168.273 328.371,172.694 334.544,178.827 340.842,177.52 340.842,169.178  "/><polygon points="321.884,177.809 321.978,179.901 324.606,182.936 327.489,182.381 327.624,178.983 324.792,176.978  "/><polygon points="318.52,174.233 316.783,171.757 313.601,171.707 311.601,174.582 314.298,178.551 317.553,177.565  "/><polygon points="310.124,185.579 311.851,187.284 316.626,187.239 316.553,183.208 312.125,181.924  "/><polygon points="321.976,197.624 326.851,197.207 330.309,194.291 326.726,187.332 321.143,187.291 319.309,191.124    319.309,194.957  "/><polygon points="334.747,281.08 333.597,283.164 334.58,284.142 337.309,284.124 337.122,280.437  "/><polygon points="331.228,294.167 329.602,295.443 329.129,299.482 334.617,299.88 334.101,296.249  "/><polygon points="336.748,192.19 334.622,191.874 334.322,194.767 336.249,194.553 337.396,193.069  "/><polygon points="344.142,295.623 344.142,344.758 344.142,344.758 344.142,344.996 358.944,354.67 362.618,349.047    350.859,341.362 350.859,17.12 362.618,9.435 358.944,3.812 331.875,21.59 323.891,26.833 326.481,33.29 333.281,28.754    344.142,21.51  "/><path d="M209.07,186.525l-59.64-15.278c-4.488-1.148-9.235,0.329-12.276,3.82l-20.878,23.966c-0.01-0.022-0.017-0.045-0.027-0.067   l-16.566-35.486l30.209-53.643c3.319-5.895,1.232-13.365-4.663-16.685c-5.897-3.32-13.366-1.231-16.685,4.663l-33.299,59.13   c-1.939,3.443-2.098,7.611-0.426,11.192l10.216,21.882L50.83,220.626l2.098-11.2c0.6-3.2-0.801-6.445-3.541-8.204l-37.063-23.798   c-3.718-2.389-8.668-1.309-11.054,2.409c-2.388,3.718-1.309,8.667,2.409,11.054l32.531,20.888l-3.428,18.3   c0.219,0.007,0.437,0.008,0.656,0.021c6.614,0.367,12.689,3.288,17.106,8.224c0.874,0.976,1.674,2.025,2.379,3.119   c6.045,9.373,5.062,21.315-2.055,29.558l-7.511,28.216L6.059,312.057c-4.178,1.439-6.398,5.992-4.96,10.169   c1.142,3.315,4.244,5.397,7.563,5.397c0.864,0,1.743-0.141,2.605-0.438l41.327-14.232c2.52-0.868,4.441-2.933,5.126-5.507   l8.697-32.671l52.618-42.797c1.247-0.678,2.401-1.573,3.388-2.706l28.241-32.418l52.324,13.404   c6.555,1.675,13.228-2.272,14.907-8.827C219.576,194.878,215.624,188.204,209.07,186.525z"/><path d="M48.83,239.854c-8.286-9.26-22.51-10.05-31.771-1.764c-9.261,8.286-10.05,22.511-1.764,31.771   c8.287,9.261,22.51,10.05,31.771,1.764C56.327,263.338,57.117,249.115,48.83,239.854z"/><polygon points="190.15,116.693 195.647,120.419 200.355,112.766 194.705,110.781 189.525,113.377  "/><polygon points="173.856,99.13 175.79,95.985 173.468,95.169 171.34,96.236 171.597,97.599  "/><polygon points="157.174,122.351 157.679,125.033 161.274,124.189 160.216,121.967 157.959,121.209  "/><polygon points="193.141,66.307 191.754,66.281 189.794,68.179 192.478,70.715 193.751,68.609  "/><polygon points="223.963,89.798 224.469,92.479 228.063,91.635 227.006,89.413 224.749,88.655  "/><polygon points="239.174,65.947 235.999,64.111 232.587,65.085 232.587,67.152 235.472,70.018  "/><polygon points="205.465,284.111 205.722,285.474 207.981,287.005 209.915,283.86 207.593,283.044  "/><polygon points="173.532,239.39 173.789,240.752 176.048,242.284 177.983,239.139 175.661,238.323  "/><polygon points="160.959,288.209 160.174,289.351 160.679,292.033 164.274,291.189 163.216,288.967  "/><polygon points="230.025,224.89 231.298,222.784 230.688,220.482 229.302,220.455 227.342,222.354  "/><polygon points="227.717,48.425 192.943,31.05 187.008,34.513 223.11,50.252  "/><polygon points="340.842,85.216 338.499,83.861 335.087,84.835 335.087,86.902 337.972,89.768 340.842,86.612 341.674,85.697  "/><polygon points="185.283,295.77 187.915,299.968 198.695,262.62 194.213,257.411  "/></g></svg>