<?xml version="1.0" ?><svg enable-background="new 0 0 64 64" id="F_00000179619025669622265420000004066403108727610299_" version="1.1" viewBox="0 0 64 64" xml:space="preserve" xmlns="http://www.w3.org/2000/svg" xmlns:xlink="http://www.w3.org/1999/xlink"><g><path d="M9,57l-4,6H1V47h4L9,57z M51,45H39l-2,6h14V45z" fill="#333333"/><path d="M57,51H11L1,57l10,6h46c3.3,0,6-2.7,6-6v0C63,53.7,60.3,51,57,51z" fill="#333333"/><path d="M19,22c1.3,2,2,4.3,2,6.6V37h-4v-8.4C17,26.3,17.7,24,19,22L19,22L19,22z M31,14L31,14c-1.3,2-2,4.3-2,6.6   V29h4v-8.4C33,18.3,32.3,16,31,14L31,14z" fill="#E6E6E6"/><path d="M17,33h4v4h-4V33z M29,29h4v-4h-4V29z" fill="#D92B3A"/><path d="M12,47c0-1.7,1.3-3,3-3c0-1.7,0.9-3,2-3v-4h4v4c1.1,0,2,1.3,2,3c1.7,0,3,1.3,3,3H12z M38,39   c0-1.7-1.3-3-3-3c0-1.7-0.9-3-2-3v-4h-4v4c-1.1,0-2,1.3-2,3c-1.7,0-3,1.3-3,3H38z" fill="#8BA9FF"/><path d="M58,59c0,0.6-0.4,1-1,1H25c-0.6,0-1-0.4-1-1s0.4-1,1-1h32C57.6,58,58,58.4,58,59z M21,58h-4   c-0.6,0-1,0.4-1,1s0.4,1,1,1h4c0.6,0,1-0.4,1-1S21.6,58,21,58z" fill="#4D4D4D"/></g></svg>