<?xml version="1.0" ?><svg enable-background="new 0 0 64 64" id="F_00000179619025669622265420000004066403108727610299_" version="1.1" viewBox="0 0 64 64" xml:space="preserve" xmlns="http://www.w3.org/2000/svg" xmlns:xlink="http://www.w3.org/1999/xlink"><g><rect fill="#4D4D4D" height="28" width="10" x="1" y="35"/><path d="M37,35c-12,0-22,5-22,5h-4v18h4c0,0,10,5,22,5s26-6,26-14S49,35,37,35z" fill="#4D4D4D"/><path d="M9,32V18c0-0.6,0.4-1,1-1s1,0.4,1,1v14c0,0.6-0.4,1-1,1S9,32.6,9,32z M16,25c0.6,0,1-0.4,1-1V14   c0-0.6-0.4-1-1-1s-1,0.4-1,1v10C15,24.6,15.4,25,16,25z M22,33c0.6,0,1-0.4,1-1V10c0-0.6-0.4-1-1-1s-1,0.4-1,1v22   C21,32.6,21.4,33,22,33z M28,23c0.6,0,1-0.4,1-1v-8c0-0.6-0.4-1-1-1s-1,0.4-1,1v8C27,22.6,27.4,23,28,23z M34,33c0.6,0,1-0.4,1-1   V18c0-0.6-0.4-1-1-1s-1,0.4-1,1v14C33,32.6,33.4,33,34,33z M40,29c0.6,0,1-0.4,1-1V14c0-0.6-0.4-1-1-1s-1,0.4-1,1v14   C39,28.6,39.4,29,40,29z M46,25c0.6,0,1-0.4,1-1V12c0-0.6-0.4-1-1-1s-1,0.4-1,1v12C45,24.6,45.4,25,46,25z M52,31c0.6,0,1-0.4,1-1   V16c0-0.6-0.4-1-1-1s-1,0.4-1,1v14C51,30.6,51.4,31,52,31z M16,33c0.6,0,1-0.4,1-1v-4c0-0.6-0.4-1-1-1s-1,0.4-1,1v4   C15,32.6,15.4,33,16,33z M28,31c0.6,0,1-0.4,1-1v-4c0-0.6-0.4-1-1-1s-1,0.4-1,1v4C27,30.6,27.4,31,28,31z M46,33c0.6,0,1-0.4,1-1   v-4c0-0.6-0.4-1-1-1s-1,0.4-1,1v4C45,32.6,45.4,33,46,33z" fill="#333333"/><path d="M63,49c0,4.4-4.2,8.2-10,10.7V38.3C58.8,40.8,63,44.6,63,49z M15,40h-4v18h4V40z M37,35c-0.3,0-0.7,0-1,0   v28c0.3,0,0.7,0,1,0s0.7,0,1,0V35C37.7,35,37.3,35,37,35z" fill="#333333"/><path d="M41,43h-8v-4h8V43z M41,47h-8v4h8V47z M41,55h-8v4h8V55z" fill="#333333"/></g></svg>