<?xml version="1.0" ?><!DOCTYPE svg  PUBLIC '-//W3C//DTD SVG 1.1//EN'  'http://www.w3.org/Graphics/SVG/1.1/DTD/svg11.dtd'><svg height="512px" style="enable-background:new 0 0 512 512;" version="1.1" viewBox="0 0 512 512" width="512px" xml:space="preserve" xmlns="http://www.w3.org/2000/svg" xmlns:xlink="http://www.w3.org/1999/xlink"><g id="explosive_x2C__military_x2C__missile_x2C__war_x2C__military"><g><path d="M351.749,169.643l5.944-5.944l2.285,2.289    c58.063-38.944,58.823-42.756,99.488-99.495l-2.271-2.29l8.009-8.005L454.36,45.358l-8.005,8.005l-2.286-2.267    c-56.757,40.732-60.554,41.421-99.494,99.484l2.285,2.278l-5.94,5.952l-0.759-0.778c-1.863,2.155-2.076-0.681-4.557,1.526    c-1.459,1.246-4.01,4.425-4.9,5.042c-1.87,1.388-1.799-0.961-5.252,2.491c-2.563,2.551-2.906,2.207-2.835,5.173    c-1.792,2.207-4.829,5.039-6.973,7.104c-3.18,3.18-6.217,6.774-7.25,6.774c-0.546,0-5.173-4.485-7.388-5.861    c-1.238,0.475-32.858,32.17-39.49,39.083l-0.901,1.437c-1.031,0.759-2.344,1.668-3.238,2.835c-0.344,0.415-0.28,0.486-0.344,0.554    l-0.617,0.692c-1.597,1.306-2.974,1.728-2.428,3.793c-1.306-0.209-1.032-0.617-2.487,0.752c-1.167,1.253-1.653,1.526-0.823,2.772    c-0.071,0-0.273-0.142-0.213-0.071c0.142,0.55-0.617-0.961-2.488,1.044c-2.401,2.409-0.408,1.305-0.823,2.753l-1.377-0.557    c-0.688,0.628-2.349,1.863-2.417,2.835c0,0.071,0,0.142,0,0.213l0.202,0.617c0,0.071,0.071,0.131,0.071,0.273    c-0.071-0.071-0.273-0.143-0.206-0.143l-0.688-0.131c-1.033,0-2.974,1.871-2.761,3.038c0,0.067,0.06,0.138,0.06,0.209l0.213,0.408    c-1.174,0.344-0.213,0.209-1.448-0.202c-1.803,1.871-2.835,1.792-1.874,3.591c-1.437,0.617-0.06,0.273-1.507-0.142l-2.701,2.562    c0.071,0.071,0.344,0.475,0.344,0.546l0.209,0.617c0,0.071,0.071,0.213,0.071,0.284c-0.625,0.06-0.831-0.213-1.59-0.344    l-2.417,2.417c0.554,1.167,0.831,0.206,0.344,1.511c-0.071,0-0.202-0.071-0.202-0.071l-1.104-0.404l-2.42,2.274    c0.273,1.38,0.688,0.416,0.273,1.59c-1.234,0.408-0.142,0-1.448-0.28l-2.349,2.357c0.415,1.303,0.688,0.344,0.273,1.647    c-1.447,0.202-0.202-0.21-1.579-0.415l-2.214,2.218c0.344,1.377,0.759,0.202,0.412,1.649c-1.306,0.273-0.344,0-1.65-0.415    l-2.214,2.207c0.142,0.423,0.202,0.352,0.273,0.696c0.142,0.759,0.273,0.276-0.071,1.106c-1.376,0.132-0.408-0.142-1.579-0.415    l-2.005,2.002c0.06,1.582,0.819,0.344,0.202,1.862c-0.819,0.273-0.273,0.071-0.961,0c-0.213,0-0.344-0.209-0.891-0.28    c-2.218,2.214-3.595,3.52-5.536,5.604c0.344,1.167,0.98,0.752,0.281,1.653c-0.969,1.306-0.486,0.131-1.792-0.213l-1.941,2.012    c0.142,0.468,0.415,0.962,0.415,1.238c-0.202,1.448-1.032,0.76-1.104,0.76c-0.751,0-0.479-1.246-2.764,1.508    c0.071,0.07,0,0.142,0.071,0.291l0.422,1.167l-0.909,0.962c-0.617-0.273,0.707,0.209-0.475-0.273l-0.902-0.344l-1.863,1.862    c0.408,1.242,0.894,0.898,0.202,1.729c-1.104,1.306-0.416,0.345-1.792-0.142l-2.001,1.934c0.415,0.901,1.182,0.838,0.202,1.803    c-1.238,1.234-0.479,0.202-1.784-0.142l-1.941,1.862l3.318,3.318c0.831-0.28,0.831-0.625,1.519-0.28    c-0.554,1.455-5.383,6.284-6.629,6.763c-1.863,0-1.388-3.311-4.908,0.28c-0.621,0.688-1.38,1.317-1.926,2.076    c-1.253,1.508-0.546,0.962-1.661,1.377c-1.649,0.617-0.688,0.688-1.103,1.59c-0.546,1.032-4.351,3.448-7.044,8.005    c-3.038,5.174-6.142,8.08-10.567,12.494c-0.688,0.688-1.306,1.384-1.994,2.072c-1.388,1.447-2.076,0.83-2.492,2.218    c-0.202,0.554,0,0.345-0.344,0.76c-0.475,0.546-1.384,1.104-1.934,1.792l-7.317,7.66c-1.792,1.732-1.653,2.207-2.136,4.011    c-1.246,4.485-12.157,13.866-15.195,17.391c-1.792,2.076-20.499,20.992-21.337,21.472c-0.894,0.493-1.032,0.07-1.519,0.908    c-0.546,0.962,0.071,0.688-1.096,1.923c-1.324,1.388-2.772,2.705-4.088,4.01c-7.59,7.743-14.761,14.911-23.331,21.468    c-1.238,0.973-2.551,2.219-3.797,3.038c-1.167,0.771-1.234,0.415-1.994,1.114c-0.699,0.625-0.699,1.033-1.661,1.994    c-4.141,4.01-12.15,8.989-15.599,13.261l0.546,2.487c-2.491,1.381-3.797-0.624-5.454,0.486c-1.795,1.104-0.692,3.726-0.213,5.315    c1.111,3.655,3.935,7.665,6.901,10.833c4.354,4.695,10.294,10.089,16.306,12.218c1.998,0.699,3.524,0.838,5.521-1.306    c-0.213-0.76-0.213-1.175-0.348-1.998c-0.067-1.11-0.209-1.04,0.621-2.072c0.969,0.071,1.242,0.345,2.214,0.617    c3.311-2.63,8.97-10.496,12.21-14.293c1.051-1.234,1.597-1.377,2.559-2.338c0.759-0.842,0.83-1.53,1.38-2.491    c2.285-3.523,13.055-15.872,16.365-19.193c4.01-3.928,7.736-8.084,11.944-11.738c0.823-0.76,1.732-1.107,2.42-1.725    c0.688-0.565,1.511-2.417,3.726-4.624c12.015-12.228,31.351-32.806,34.385-33.771c5.244-1.721,5.802-3.382,9.658-7.246    c1.324-1.237,3.524-3.797,4.848-4.687c1.234-0.913,1.163-0.221,1.994-1.739c0.621-1.097,0.55-1.31,1.597-2.413    c1.927-2.001,7.867-8.432,9.67-9.523c9.86-6.083,9.101-7.187,12.075-9.263l6.49-6.973l-0.628-1.237    c-0.344-0.416-0.688-0.831-1.032-1.235c1.316-1.458,5.458-5.809,6.905-6.497c0.617,1.519-0.202-1.526,0.071,0.486    c0.071,0.891-0.344,0.202,0.344,1.234c0.071,0.142,1.313,1.388,1.597,1.598c1.65,1.653,1.65,0.822,3.24-0.76    c-0.131-0.767-1.111-1.182,0.415-1.799l0.486-0.071c0.961-0.143,0.404,0.546,1.721-0.688c2.207-2.219-0.557-2.278,1.246-2.967    c0.688-0.284,0.202-0.142,0.89,0.061l0.416,0.142c4.212-3.52-0.131-2.349,2.076-3.797c0.897-0.546,0.28-0.202,1.519,0.277    c0.344-0.349,1.376-1.238,1.579-1.653c0.494-1.183,0,0.142,0-0.838c-0.071-0.416-1.032-0.131,0.213-1.033    c1.174-0.961,0.352,1.729,3.662-2.005c-0.131-0.759-0.831-0.83-0.273-1.578c0.688-0.973,0.76-0.143,1.65,0.202l2.289-2.207    c-0.292-1.175-0.913-0.768-0.355-1.59c0.557-0.831,0.901,0.135,1.732,0.202l1.994-2.002l-0.486-1.032    c-0.071-0.071-0.071-0.206-0.124-0.276c0-0.071-0.079-0.139-0.079-0.21c1.871-1.238,1.044,0.21,2.903-0.273    c0.479-0.134,2.491-1.167,3.038-1.511c6.359-3.662,8.009,1.578,16.64,11.177c6.479,7.317,12.288,13.949,19.811,20.227    c1.8,1.526,1.254,1.11,3.045,0.767c0.617,1.447,0.135,1.377,1.653,2.615l2.69,2.143l7.813-7.522l0.124-0.617    c0.292-1.384-2.544-4.492-3.868-4.492c-0.067-0.558,0.143-0.83,0-1.519c-0.202-1.032-7.661-8.697-8.899-9.809    c-0.759-0.688-0.688-0.479-1.253-1.104c-0.617-0.752-0.262-0.479-1.092-1.175c-3.049-2.682-5.174-5.517-8.354-8.218l-7.316-6.562    c-0.76-0.688-4.9-2.136-6.568-5.933c-0.55-1.306-0.408-1.657,0.138-3.037c1.53-3.864,1.602-2.286,0.621-6.012    c1.87-1.376,1.669-0.272,3.793-2.54c-0.06-0.415-0.202-0.557-0.202-0.691c-0.142-0.696-0.201-0.494,0-1.111    c0.617-0.213,0.345-0.071,0.895-0.142c1.182-0.071,1.799-0.688,2.559-1.657c-0.273-1.175-0.475-0.621-0.143-1.725    c1.377-0.554,0.486,0.276,1.804-0.202c3.247-1.032,0.344-3.46-1.175-4.766c-1.316,1.245-0.415,0.688-1.175,0.344    c0-1.459,1.032-1.803,2.005-3.239c2.278-3.393,4.138-6.911,6.569-10.292c1.437-2.076,3.37-4.485,4.481-6.632    c2.271-4.343,1.784-2.966,4.069-3.654c0.83-0.281,0.895-0.625,1.653-1.033c0.143,0.823-0.142,0.688-0.486,1.653l4.007,4.137    l1.529-0.961c1.234,0.751,1.437,0.479,2.683,0l1.245,1.246c-1.803,2.207-2.896,2.409-2.824,4.694    c0.617,0.752,1.437,1.38,2.417,1.238c3.797-0.961,1.309-5.72,10.488-1.855c4.493,1.926,4.148,6.269,3.116,9.447    c4.964,4.908,5.724-6.136,13.931,0.696c3.25,2.622,6.082,10.216,7.814,13.814l10.204,20.704l4.018,7.044l15.599-15.468    c1.381-1.799,3.523-4.141,1.653-5.798c-1.725-1.519-2.888,0.961-5.308-3.251c-1.306-2.267-6.355-9.868-6.771-11.659    c-0.752-3.049,1.791-3.726,0.961-5.873c-1.092-1.448-4.485,2.349-8.14-6.417c-0.688-1.455-0.071-2.072,0.965-3.449    c-1.309-1.246-2.906-1.661-3.311-3.18c-1.174-4.836-4.212-3.18-6.774-8.068c3.464-6.771,10.5-12.371,7.602-19.96    c-1.04-2.701-6.214-7.321-8.705-9.808c-1.993-2.013-2.559-3.251-4.137-5.042c-0.965-1.04-1.036-1.519-2.005-2.005    c-1.104-0.475-1.863-0.412-1.863-1.852c0.415-1.668,7.316-7.75,9.108-9.464c2.421-2.356,3.464-3.939,4.77-4.425    c2.48-0.89,0.486,1.317,4.694-2.832c2.219-2.207,2.563-2.076,2.219-4.616c1.437-1.732,5.518-5.185,5.992-6.359    c0.76-1.657-0.344-0.89,0-2.214c0.494-0.546,0.909-0.891,1.324-1.096L351.749,169.643z" style="fill-rule:evenodd;clip-rule:evenodd;fill:#262626;"/></g></g><g id="Layer_1"/></svg>