<?xml version="1.0" ?><svg id="Layer_1" style="enable-background:new 0 0 325.51 268.41;" version="1.1" viewBox="0 0 325.51 268.41" xml:space="preserve" xmlns="http://www.w3.org/2000/svg" xmlns:xlink="http://www.w3.org/1999/xlink"><g><polygon points="149.325,109.309 147.706,109.309 147.042,145.187 149.943,142.724  "/><path d="M146.398,179.942l-0.715,38.629h0.675h4.316h0.675l-0.709-38.279c-0.243,0.011-0.485,0.032-0.73,0.032   C148.716,180.324,147.54,180.194,146.398,179.942z"/><polygon points="127.64,177.533 126.449,177.852 136.271,220.467 140.44,219.35  "/><polygon points="90.291,198.728 89.419,199.6 119.233,231.594 122.285,228.542  "/><polygon points="68.224,236.949 110.041,249.749 111.158,245.58 68.544,235.757  "/><polygon points="185.873,245.58 186.99,249.749 200.358,245.657 199.606,242.415  "/><polygon points="174.746,228.542 177.798,231.594 193.246,215.016 192.537,211.963  "/><polygon points="169.391,177.533 156.59,219.35 160.759,220.467 170.582,177.852  "/><polygon points="131.342,222.413 74.959,128.801 73.557,129.611 126.435,225.246 127.019,224.909 130.758,222.751  "/><polygon points="20.302,182.866 19.493,184.267 113.104,240.651 113.442,240.067 115.6,236.328 115.937,235.744  "/><polygon points="0,258.634 109.262,260.657 109.262,259.982 109.262,255.666 109.262,254.991 0,257.015  "/><path d="M297.031,258.634v-1.619l-61.309-1.135c0.025,1.316-0.12,2.621-0.412,3.897L297.031,258.634z"/><path d="M202.589,255.266l-14.82-0.274v0.674v4.317v0.675l16.026-0.297c-0.047-0.177-0.105-0.349-0.147-0.529L202.589,255.266z"/><polygon points="277.538,184.267 276.729,182.866 225.697,211.082 226.595,214.951  "/><polygon points="181.094,235.744 181.431,236.328 183.589,240.067 183.926,240.651 197.323,232.582 196.128,227.432  "/><polygon points="165.689,222.413 166.273,222.751 170.011,224.909 170.595,225.246 207.611,158.3 205.592,156.163  "/><polygon points="153.62,250.853 154.089,254.862 156.409,255.241 160.155,252.528 157.837,249.385  "/><polygon points="157.584,240.08 153.392,237.655 148.887,238.941 148.887,241.67 152.696,245.455 157.144,244.531  "/><polygon points="148.151,250.062 148.264,247.21 145.887,245.528 143.446,246.225 143.525,247.981 145.731,250.528  "/><polygon points="136.495,241.104 134.816,243.517 137.08,246.848 139.812,246.02 140.623,243.223 139.165,241.145  "/><polygon points="135.256,249.679 133.577,252.746 135.026,254.177 139.034,254.139 138.972,250.756  "/><polygon points="142.824,254.183 141.285,257.4 141.285,260.617 143.523,262.855 147.615,262.505 150.517,260.058 147.51,254.218     "/><polygon points="165.443,253.719 163.506,254.309 162.472,256.724 162.98,259.099 167.182,259.159 168.612,256.525    167.259,254.688  "/><polygon points="132.693,255.844 130.756,256.434 129.722,258.849 130.23,261.224 134.432,261.284 135.862,258.65 134.509,256.813     "/><polygon points="165.066,246.306 163.658,245.492 162.144,245.924 162.144,246.841 163.424,248.112  "/><polygon points="174.019,245.299 174.019,246.216 175.299,247.487 176.941,245.681 175.533,244.867  "/><polygon points="172.696,257.822 171.801,259.389 173.972,260.505 174.392,258.933 173.581,257.584  "/><polygon points="121.946,257.822 121.051,259.389 123.222,260.505 123.642,258.933 122.831,257.584  "/><polygon points="135.394,231.216 136.674,232.487 138.316,230.681 136.908,229.867 135.394,230.299  "/><polygon points="160.15,234.515 158.741,233.7 157.228,234.132 157.228,235.049 158.508,236.321  "/><polygon points="115.728,248.132 115.728,249.049 117.008,250.321 118.65,248.515 117.241,247.7  "/><polygon points="132.346,248.502 131.589,247.062 130.078,246.62 129.589,247.396 129.994,249.154  "/><polygon points="154.137,258.029 153.885,260.457 155.503,260.278 156.465,259.032 155.922,258.294  "/><path d="M317.811,37.648c-4.415-0.143-8.129,3.278-8.295,7.693l-1.444,38.399l-30.073,7.876l-35.515-9.79L212.973,57.17   c-2.479-2.07-5.957-2.448-8.823-0.958l-32.667,17c-3.919,2.04-5.442,6.87-3.403,10.79c2.04,3.919,6.87,5.443,10.79,3.403   l27.937-14.538l24.178,20.201l-10.343,37.521l-14.372-15.216c-4.471-4.734-11.866-5.142-16.833-0.927l-47.46,40.288   c-5.157,4.378-5.789,12.108-1.411,17.267c2.423,2.854,5.872,4.323,9.345,4.322c2.802,0,5.619-0.956,7.922-2.911l38.604-32.771   l24.1,25.515c1.684,1.782,3.777,2.939,5.994,3.479l-27.421,20.17c-3.942,2.9-5.781,7.87-4.674,12.638l13.111,56.482   c1.313,5.659,6.352,9.483,11.922,9.483c0.917,0,1.849-0.104,2.78-0.32c6.591-1.529,10.693-8.112,9.163-14.702l-11.287-48.625   l41.767-30.722c1.615-1.188,2.843-2.702,3.683-4.379c0.444-0.668,0.796-1.413,1.021-2.228l16.725-60.669l34.552-9.049   c3.41-0.894,5.835-3.915,5.967-7.438l1.667-44.333C325.67,41.528,322.226,37.814,317.811,37.648z"/><path d="M262.643,41.101c5.077-0.901,9.885-2.219,14.098-3.842c-1.72-0.901-3.584-1.596-5.571-2.038   c-8.304-1.845-16.555,1.16-21.799,7.13C253.541,42.333,258.064,41.913,262.643,41.101z"/><path d="M263.045,43.365c-4.817,0.855-9.594,1.295-13.979,1.295c-0.491,0-0.962-0.021-1.443-0.032   c-1.527,2.268-2.668,4.849-3.297,7.679c-2.695,12.131,4.955,24.149,17.085,26.844c12.132,2.695,24.149-4.954,26.844-17.085   c2.034-9.157-1.828-18.247-9.061-23.314C274.472,40.73,268.926,42.322,263.045,43.365z M259.522,60.981   c-3.337,0-6.042-2.705-6.042-6.042s2.705-6.042,6.042-6.042s6.042,2.705,6.042,6.042S262.858,60.981,259.522,60.981z    M274.563,64.189c-2.692,0-4.875-2.183-4.875-4.875s2.183-4.875,4.875-4.875s4.875,2.183,4.875,4.875   S277.256,64.189,274.563,64.189z"/><path d="M253.578,23.583l-3.457-1.467c-5.347,1.529-9.908,3.447-13.352,5.56l-0.259,2.976   C240.239,28.037,246.139,25.439,253.578,23.583z"/><path d="M266.14,21.432c7.733-0.728,14.167-0.181,18.382,1.138l-0.681-2.635c-4.568-1.172-10.721-1.488-17.731-0.822l-0.588,1.292   L266.14,21.432z"/><path d="M287.46,31.247c-1.804,1.655-4.542,3.349-8.017,4.901l-0.001,0.001l0.938,2.1c0.424-0.189,0.831-0.382,1.234-0.575   c3.035-1.455,5.471-3.012,7.237-4.606l-1.083-1.801L287.46,31.247z"/><path d="M246.374,42.301c-3.988-0.182-7.36-0.788-9.834-1.699l-1.907,0.441l-0.422,1.071c2.594,1.268,6.25,2.096,10.799,2.407   c0.415,0.028,0.829,0.058,1.258,0.077L246.374,42.301z"/><polygon points="258.226,26.767 260.945,23.639 265.063,24.106 262.929,20.553 264.645,16.78 260.607,17.713 257.55,14.914    257.188,19.043 253.582,21.086 257.397,22.706  "/><polygon points="229.282,39.378 231.418,42.93 232.938,39.074 236.976,38.141 233.779,35.503 234.138,31.374 230.642,33.6    226.827,31.982 227.863,35.995 225.145,39.124  "/><polygon points="286.66,21.649 287.696,25.662 284.978,28.791 289.115,29.045 291.251,32.597 292.771,28.741 296.809,27.807    293.612,25.17 293.972,21.041 290.476,23.267  "/><path d="M201.221,26.642c0.411,1.406,1.664,2.298,3.455,1.773c1.65-0.483,2.25-1.955,1.849-3.325   c-0.411-1.405-1.713-2.206-3.435-1.702C201.546,23.84,200.841,25.343,201.221,26.642z"/><path d="M200.368,5.351c-0.319-1.089-1.116-1.732-2.802-1.239c-1.65,0.483-1.966,1.489-1.678,2.473l1.161,3.968l4.163,11.364   l2.915-0.853l-2.618-11.816L200.368,5.351z"/><path d="M218.186,3.836c-0.709-2.423-3.202-4.82-7.979-3.422c-2.423,0.709-4.771,2.196-6.016,3.285l1.49,5.093l3.91-0.84   l-0.596-2.036c-0.144-0.492-0.05-0.824,0.245-0.987c0.416-0.275,0.977-0.44,1.575-0.614c1.369-0.401,2.443,0.01,2.854,1.416   c0.534,1.826-0.32,2.686-1.502,4.251c-1.654,2.162-2.41,3.49-1.266,6.357l0.986,2.457l3.688-1.079l-0.493-1.686   c-0.658-2.248-0.346-2.873,1.331-4.964C218.452,8.524,218.957,6.469,218.186,3.836z"/><path d="M214.364,20.09c-1.546,0.452-2.27,1.885-1.87,3.254c0.411,1.406,1.687,2.252,3.409,1.748c1.65-0.483,2.24-1.989,1.859-3.29   C217.342,20.363,216.049,19.597,214.364,20.09z"/></g></svg>