<?xml version="1.0" ?><!DOCTYPE svg  PUBLIC '-//W3C//DTD SVG 1.1//EN'  'http://www.w3.org/Graphics/SVG/1.1/DTD/svg11.dtd'><svg height="512px" style="enable-background:new 0 0 512 512;" version="1.1" viewBox="0 0 512 512" width="512px" xml:space="preserve" xmlns="http://www.w3.org/2000/svg" xmlns:xlink="http://www.w3.org/1999/xlink"><g id="army_x2C__military_x2C__war_x2C__weapon__x2C_navy_x2C__aviation_x2C__mp3__x2C__gun__x2C_"><g><path d="M60.861,206.152c0,3.04,0.98,5.469,2.167,5.469h15.218v0.072c0,5.18,9.687,3.939,9.687,3.939    v-3.939v-0.072h5.118c0.144,0.62,0.342,1.169,0.566,1.727h10.452v-1.654h4.011l11.359-0.072l-0.144,0.755l2.131,3.526    c0.72,4.991,7.825,4.299,13.582,4.991l47.831,4.291c19.455,1.943,38.9,3.885,58.849,5.81c0,0.072,0.072,0.072,0.072,0.145    c0.054,0.27,0.198,0.485,0.27,0.827c0,0,0.072-0.063,0.198-0.063c0.072,0.063,0.072,0.063,0.144,0.135l-0.612,6.584l-1.601,1.241    l-0.341,1.385l2.751,0.972c-0.197,1.169-0.341,1.87-0.341,1.87s-8.095,48.443-37.92,100.16c0,0-0.765,1.313,1.305,2.563    c2.086,1.178,13.5,8.509,15.928,9.687c2.411,1.251,4.012-0.827,4.012-0.827c29.762-51.717,37.92-100.16,37.92-100.16l2.168-4.506    l3.318,0.549c1.178,0.216,2.212,0.351,2.636,0.413c0.611,4.228,1.789,11.981,2.481,12.809c0.954,1.043,1.376-0.478,1.376-0.478    l-0.692-12.043h5.883h1.52h1.403c1.106,1.106,2.284,2.771,3.104,5.118c2.158,6.296,5.063,14.472,6.862,18.483    c1.789,4.011,5.181,5.675,15.02,5.675c9.769,0,10.452,0,15.983,0c5.54,0,4.848-4.362,11.144-4.704    c6.297-0.351,7.402,2.141,7.825,3.04c0.342,0.827-6.224-14.256-6.224-14.256l-0.693,4.982l-11.09,6.791c0,0-13.896,0-19.841,0    c-5.981,0-8.319-1.259-10.335-6.791c-1.987-5.604-3.462-9.687-5.036-15.785c-0.297-1.042-0.351-1.87-0.225-2.554h3.741    c0,0,7.744,0,17.035,0c13.015,11.009-1.592,22.288,1.304,22.432c2.86,0.126,6.251-2.572,8.167-6.728    c1.943-4.209,1.179-12.106,1.179-13.42c0-1.321,1.187-2.284,1.187-2.284c5.532,0,10.649,0,14.266,0    c8.238,0,11.288-0.216,13.968-2.428l25.967,57.454l0.683,10.73c7.133,1.448,20.714-7.816,24.303-11.423    c4.992-2.905,8.581-4.991,12.889-8.58v-3.599l-28.602-45.698c-4.506-8.995-1.457-13.636,0.414-16.532h12.124    c3.589,0.136,6.565-3.327,6.565-1.25c0,2.078,1.602,1.52,2.636,0c0.684-1.034,5.531-8.58,8.58-13.501    c0.072,0,0.072-0.071,0.072-0.134c0.072,0,0.153,0,0.198,0c3.049,0,0,3.876-2.824,6.439c-2.86,2.491-4.354,7.475,2.141,8.373    c6.439,0.9,7.052-2.148,7.052-6.161c0-4.083,0-12.673,0-12.673h-4.552l0,0h-4.102v-1.313h7.771c0.197,0.413,0.27,0.692,0.27,0.692    c15.371,0,14.948,38.973,19.374,46.797c4.434,7.825,11.71,3.463,8.463-2.986c-7.618-24.212-2.438-57.445-2.438-57.445    s1.602-3.67-12.511-3.67l0,0c-3.049,0-6.593,0.485-10.819,0.485c-2.069,0-3.328,0.692-4.084,1.861v-0.683h-2.294v-0.63v-4.011    c0,0-5.729-8.374-7.941-12.106c-2.213-3.742-3.534-3.958-7.402-3.958c-3.957,0-23.412,0-23.412,0l-0.116,0.144h-0.765h-4.452    c0,0,0-0.827,0-2.212c0-1.179,0-2.771,0-4.642c0-4.011-3.247-7.267-7.331-7.267c-4.154,0-6.098,0-6.098,0    c0.072-0.208,0.072-0.414,0-0.63c0-1.583-0.963-2.141-0.963-2.141c-7.275,1.179-14.336,5.954-14.336,5.954l1.403,3.256h1.375    v0.063l1.728,5.406v0.072l-2.141,2.14h-1.448h-20.983h-92.146l-15.002,1.655h-22.306h-20.48h-4.92    c-0.621-2.626-3.517-4.56-7.132-4.56c-3.517,0-6.494,1.934-7.132,4.56h-28.035l-1.871,0.972h-2.141h-4.695h-5.486h-5.874h-2.069    v-6.854c2.339-8.023,0-16.819,0-16.819c-4.794-0.693-8.239,0-8.239,0c-5.333,6.854-4.155,16.819-4.155,16.819v6.854h0.27    c0,0-3.175,6.026-0.27,13.365v5.883c0,0-0.342,0.827-0.692,2.356h-4.992v-3.257c0,0-8.724-1.105-9.615,3.257h-15.29    C61.842,200.685,60.861,203.112,60.861,206.152L60.861,206.152z M356.879,165.795L356.879,165.795    c0,0.892-0.764,1.728-1.744,1.728c-0.963,0-1.728-0.836-1.728-1.728c0-0.971,0.765-1.735,1.728-1.735    C356.115,164.06,356.879,164.824,356.879,165.795L356.879,165.795z M107.047,191.546L107.047,191.546H108    c-0.117,1.241-0.189,4.425,0.989,6.782h-1.942V191.546z" style="fill:#010101;"/></g></g><g id="Layer_1"/></svg>