<?xml version="1.0" ?><svg id="Layer_1" style="enable-background:new 0 0 311.782 276.94;" version="1.1" viewBox="0 0 311.782 276.94" xml:space="preserve" xmlns="http://www.w3.org/2000/svg" xmlns:xlink="http://www.w3.org/1999/xlink"><g><ellipse cx="249.608" cy="89.037" rx="22.5" ry="22.5" transform="matrix(0.2228 -0.9749 0.9749 0.2228 107.2053 312.5389)"/><path d="M84.007,105.438c0.417,0.638,0.609,0.994,0.609,0.994s-0.304,0.898-1.012,2.171c-0.23-0.057-0.454-0.101-0.686-0.162   c-6.142-1.615-12.98-4.762-20.299-10.282c2.016,7.299,5.451,13.494,9.714,18.751c-5.683,0.947-13.715-0.888-24.846-9.285   c11.087,40.135,51.177,39.632,51.177,39.632s-2.823,18.268-31.942,9.766c10.797,60.683,63.302,62.017,94.123,57.258l-31.276,11.967   c-6.318,2.417-9.48,9.5-7.063,15.818c1.867,4.879,6.515,7.876,11.444,7.876c1.455,0,2.935-0.261,4.375-0.813l57.5-22   c4.324-1.654,7.346-5.605,7.811-10.212l3.188-31.623c0.021,0.012,0.039,0.027,0.06,0.039l34.028,19.383l6.351,61.236   c0.653,6.3,5.972,10.988,12.17,10.987c0.422,0,0.849-0.022,1.278-0.066c6.729-0.698,11.619-6.719,10.921-13.448l-7-67.5   c-0.407-3.931-2.688-7.424-6.121-9.38l-20.984-11.953l10.224-44.746l4.761,10.352c1.311,2.848,4.154,4.657,7.267,4.657   c0.121,0,0.243-0.003,0.365-0.008l44-2c4.414-0.201,7.829-3.941,7.629-8.355c-0.201-4.413-3.914-7.843-8.355-7.628l-38.619,1.755   l-7.377-16.04c-4.263,1.424-8.846,1.66-13.338,0.634c-1.277-0.292-2.537-0.685-3.744-1.17c-7.893-3.169-13.319-9.919-14.993-17.752   l-5.117-1.169l-11.8-31.727l23.014-32.039c2.578-3.588,1.759-8.587-1.83-11.165c-3.589-2.577-8.587-1.758-11.164,1.831l-25.5,35.5   c-1.555,2.164-1.93,4.958-1.001,7.456l4.569,12.286c10.924,14.229,14.496,29.807,11.352,39.234c2.4,4.538,2.86,8.656,1.005,11.542   c-6.727,10.464,6.649,14.697,11.97,19.301s-35.149,12.546-34.482,33.284c0,0-0.06-0.007-0.164-0.019   c0.541,5.685,1.538,12.561,3.16,20.901c-2.063-3.277-4.778-5.176-7.974-6.151l-0.868,8.609c-1.223-2.933-2.518-6.114-3.862-9.406   c-0.91-2.23-1.842-4.509-2.789-6.8c-3.034,0.796-6.398,0.861-9.124,0.743c-4.22,0.003-8.272-1.176-12.492-1.173   c-4.786,0.241-12.559,1.299-16.102,5.015c4.763-5.563,6.449-8.941,9.961-12.2c3.215-2.911,7.514-2.725,11.952-3.265   c2.016-0.195,4.878-0.088,8.025-0.02c-12.079-3.015-26.037-8.088-31.214-16.086c18.262,5.332,17.197-11.76,17.197-11.76   s-38.407,4.753-45.36-20.417c22.549,12.806,36.55-5.187,36.55-5.187s-7.725-14.313-34.081-19.476   c44.681-17.932,57.484,0.981,58.495,6.432c0,0,12.74-2.477-12.603-23.751c22.62,2.651,40.212,13.656,48.926,24.195   c-0.179-20.207-20.02-52.884-62.631-61.675c-2.909-0.6-5.917-1.096-9.038-1.462c14.693,12.334,21.353,20.703,23.886,26.363   c-11.785-11.772-29.227-21.518-52.762-24.276c5.098,4.28,9.228,8.081,12.556,11.459c23.049,23.396,7.54,26.413,7.54,26.413   c-1.056-5.689-10.168-20.571-36.313-22.16c-13.801-0.839-32.346,2.025-56.961,11.904C67.055,82.582,81.08,100.963,84.007,105.438z    M225.986,104.814c0.961,0.891,1.017,2.391,0.126,3.352c-0.891,0.96-2.391,1.017-3.352,0.126c-0.961-0.891-1.017-2.391-0.126-3.352   C223.525,103.98,225.025,103.923,225.986,104.814z M213.54,103.153c0.891-0.961,2.392-1.017,3.352-0.126s1.017,2.391,0.126,3.352   c-0.891,0.96-2.391,1.017-3.352,0.126C212.706,105.614,212.649,104.114,213.54,103.153z M217.018,133.499   c-0.891,0.96-2.391,1.017-3.352,0.126c-0.96-0.891-1.017-2.391-0.126-3.352c0.891-0.961,2.392-1.017,3.352-0.126   S217.909,132.538,217.018,133.499z M218.283,120.638c-1.527-1.416-1.616-3.801-0.201-5.327c1.416-1.527,3.801-1.617,5.328-0.201   c1.527,1.416,1.616,3.801,0.2,5.328C222.195,121.964,219.81,122.054,218.283,120.638z M203.491,165.238   c0.891-0.961,2.392-1.017,3.352-0.126s1.017,2.391,0.126,3.352c-0.891,0.96-2.391,1.017-3.352,0.126   C202.657,167.699,202.6,166.199,203.491,165.238z M119.905,158.979c0.891-0.961,2.392-1.017,3.352-0.126   c0.961,0.891,1.017,2.391,0.126,3.352c-0.891,0.96-2.391,1.017-3.352,0.126S119.015,159.939,119.905,158.979z M98.979,175.752   c-0.891,0.96-2.391,1.017-3.352,0.126s-1.017-2.391-0.126-3.352c0.891-0.961,2.392-1.017,3.352-0.126   C99.813,173.291,99.87,174.792,98.979,175.752z M126.943,173.238c1.357-1.463,3.641-1.549,5.104-0.192   c1.462,1.356,1.548,3.641,0.192,5.104c-1.356,1.462-3.641,1.548-5.103,0.192C125.673,176.985,125.587,174.7,126.943,173.238z"/><path d="M42.712,227.327c11.029,7.983,25.214,11.803,37.487,3.106c8.601-6.719,17.201-13.439,28.642-5.393   c-4.452-6.151-11.627-6.809-17.112-6.79c-4.722,0.555-8.042,3.008-12.929,1.852c-3.237-0.908-6.04-4.704-9.153-6.436   c-14.04-7.593-25.623-1.604-40.025,5.368c14.057-2.807,27.344-5.166,37.3,4.343C61.619,230.592,50.237,230.567,42.712,227.327z"/><path d="M17.18,163.777c10.383,1.376,23.369,6.379,23.302,16.535c-3.094,1.079-7.257-1.611-9.51-3.254   c4.525,12.579,30.024,20.553,39.738,18.691c-5.42-2.412-16.315-13.009-15.907-18.812c0.81-11.481-13.032-18.267-16.971-18.418   c6.979,5.154,10.476,13.327,9.278,16.658C42.5,166.331,34.677,160.081,17.18,163.777z"/><path d="M136.62,21.987c0.677,3.884,9.457,18.675,20.726,16.337c5.696-1.181,17.451,6.217,20.567,11.266   c0.546-9.876-10.767-34.079-23.838-36.881c1.93,2.012,5.152,5.778,4.497,8.989C148.516,23.123,143.674,10.105,140.922,0   c-1.322,17.834,4.064,25.568,13.448,28.953C151.229,30.587,142.661,28.214,136.62,21.987z"/><ellipse cx="83.743" cy="31.341" rx="8.785" ry="8.785" transform="matrix(0.68 -0.7332 0.7332 0.68 3.8178 71.4296)"/><ellipse cx="107.034" cy="28.855" rx="7.026" ry="7.026" transform="matrix(0.68 -0.7332 0.7332 0.68 13.0934 87.711)"/><ellipse cx="36" cy="136.867" rx="7.026" ry="7.026" transform="matrix(0.68 -0.7332 0.7332 0.68 -88.8316 70.1912)"/><ellipse cx="23.452" cy="100.629" rx="4.45" ry="4.45" transform="matrix(0.68 -0.7332 0.7332 0.68 -66.2772 49.396)"/><ellipse cx="4.45" cy="58.486" rx="4.45" ry="4.45" transform="matrix(0.68 -0.7332 0.7332 0.68 -41.458 21.9779)"/><ellipse cx="45.28" cy="56.63" rx="3.77" ry="3.77" transform="matrix(0.68 -0.7332 0.7332 0.68 -27.0322 51.3203)"/><ellipse cx="63.867" cy="15.549" rx="5.62" ry="5.62" transform="matrix(0.68 -0.7332 0.7332 0.68 9.0365 51.8027)"/><ellipse cx="59.413" cy="42.645" rx="5.62" ry="5.62" transform="matrix(0.68 -0.7332 0.7332 0.68 -12.2556 57.2074)"/><ellipse cx="13.667" cy="19.548" rx="4.002" ry="4.002" transform="matrix(0.68 -0.7332 0.7332 0.68 -9.959 16.2759)"/></g></svg>