<?xml version="1.0" ?><svg enable-background="new 0 0 913.927 683.2686" id="Layer_1" version="1.1" viewBox="0 0 913.927 683.2686" xml:space="preserve" xmlns="http://www.w3.org/2000/svg" xmlns:xlink="http://www.w3.org/1999/xlink"><g><path d="M139.2724,578.0431c29.1553-26.3662,70.8755-56.479,117.4761-84.791s92.5508-51.4629,129.3853-65.1885   c30.1682-11.2416,50.8192-15.0562,61.6851-11.4352c-0.1975-0.7786-0.4849-1.5087-0.8895-2.1747   c-4.223-6.9509-22.7586-12.3979-49.3607-13.3417l3.5757-7.6255c1.3848-0.2722,2.7474-0.7736,4.0237-1.5491   c5.8199-3.5358,7.6715-11.1202,4.1356-16.9401c-2.7953-4.601-8.1196-6.7083-13.1033-5.6478l-44.8832-60.1169   c3.6762-4.8254,4.5384-11.5013,1.6378-17.2905c-4.0583-8.0997-33.3898,6.5967-29.3315,14.6964   c3.306,6.5981,10.4589,9.9926,17.376,8.8317l46.1472,61.8101c-1.1926,3.3702-0.9197,7.2278,1.0813,10.5214   c0.4222,0.6948,0.9053,1.3292,1.433,1.9085l-5.2993,11.301c-11.0345,0.2123-23.0986,1.1511-35.8414,2.9716   c3.7656-4.0764,6.3715-8.1896,5.0764-10.9213c-1.6289-3.4341-7.2393-2.6904-11.9458-1.6577   c-6.4775,1.4204-13.7461,3.9736-20.7754,6.4429c-5.2845,1.8563-10.6359,3.7356-15.6042,5.116   c1.1843-6.3039,4.8115-12.3821,10.8547-18.1282c7.8237-7.4385,10.8418-13.7852,8.9712-18.8638   c-3.4702-9.4209-22.4512-10.5586-23.2573-10.6025l-0.1089,1.9971c0.1846,0.0103,18.4741,1.1055,21.4902,9.2983   c1.5679,4.2593-1.2832,9.8853-8.4731,16.7217c-6.6567,6.3293-10.5462,13.0859-11.6128,20.1422   c-7.3282,1.8507-13.6332,2.3895-17.3496-0.2017c-2.624-1.8291-3.9385-5.2441-4.0181-10.439l-4,0.0615   c0.1001,6.4819,2.0278,11.0776,5.7305,13.6592c4.6669,3.2527,11.4671,2.9745,19.3456,1.1189   c0.0014,0.2094-0.0066,0.4178-0.0004,0.6277c0.0551,1.8542,0.2952,3.6412,0.6741,5.35   c-15.944,4.6307-32.2789,10.6805-48.4863,18.4108l2.0689-31.9781c5.8504-1.7047,10.5221-6.5978,11.6033-13.0096   c1.5065-8.9333-30.8441-14.3888-32.3506-5.4554c-1.2261,7.2706,2.5347,14.2284,8.7928,17.3792L242.6,438.3958   c-4.7767,2.5525-9.5308,5.2524-14.2471,8.1178c-0.4441,0.2698-0.8792,0.5472-1.3211,0.8188l3.5245,5.8051l14.2018,6.9358   l-4.9541,13.211l-11.89-7.2661l-17.5046-0.3303l-4.9009-3.7943c-9.2151,6.83-17.8582,14.0276-25.9127,21.4517l6.3732,29.5719   l-14.8624,17.5046h-12.5505l-22.2311,1.7684l-3.9338-2.9515l-22.3157-16.7434l-5.1536,6.8688l26.3963,19.8051   c-1.608,2.355-3.1591,4.6956-4.6535,7.0189l-49.1273-8.1554l-0.649,3.9098l47.4742,7.881   c-3.0084,4.8292-5.7755,9.5717-8.2822,14.1804l-12.4711-0.5044c-0.271-0.7353-0.6113-1.4564-1.0334-2.1512   c-3.5358-5.8199-11.1202-7.6715-16.9401-4.1357c-1.6952,1.0299-3.0422,2.4095-4.0289,3.9827l-51.0602-7.7963   c0.8913-3.9913,0.3125-8.3166-1.9786-12.0877c-4.704-7.7426-32.7422,9.2919-28.0383,17.0345   c4.5463,7.4831,14.1176,10.0141,21.7443,5.9299l58.7346,8.9675c0.153,0.3063,0.3105,0.6115,0.4915,0.9094   c3.5358,5.8199,11.1202,7.6715,16.9401,4.1357c1.2765-0.7755,2.3495-1.754,3.2292-2.8577l8.4147,0.3403   c-11.4211,24.0447-15.1282,43.0056-10.9052,49.9565c0.4047,0.6661,0.9203,1.2578,1.5204,1.7919   C102.493,616.2077,115.3943,599.6375,139.2724,578.0431z M394.9598,375.135c3.4545-2.0987,7.9718-0.9958,10.0706,2.4586   c2.0987,3.4544,0.9958,7.9718-2.4586,10.0705c-3.4544,2.0988-7.9718,0.9959-10.0706-2.4585   C390.4026,381.7511,391.5054,377.2337,394.9598,375.135z M372.6174,411.1442c1.8135-2.1859,5.8151-1.8579,8.9378,0.7327   c3.1228,2.5906,4.1843,6.4628,2.3708,8.6487c-1.8134,2.186-5.815,1.8579-8.9378-0.7327   C371.8655,417.2023,370.804,413.3302,372.6174,411.1442z M304.8423,408.2804c-0.0103-0.3517-0.0029-0.7019,0.0016-1.0524   c5.4416-1.4235,11.3344-3.4914,17.3572-5.6073c6.916-2.4292,14.0674-4.9414,20.3062-6.3096   c5.5625-1.2197,7.1538-0.6558,7.4683-0.4922c0.0869,1.4716-3.4097,5.665-8.2834,10.214   c-11.6604,1.9232-23.8211,4.5859-36.2366,8.1095C305.1114,411.5812,304.8911,409.9578,304.8423,408.2804z M275.5504,440.0916   c2.8533-3.4395,9.1496-2.9233,14.0632,1.1528c4.9135,4.0762,6.5837,10.1688,3.7303,13.6083   c-2.8533,3.4395-9.1497,2.9233-14.0632-1.1528S272.6971,443.531,275.5504,440.0916z M200.9052,485.4418   c4.3674-0.9474,9.0051,3.3423,10.3585,9.5814c1.3535,6.2391-1.0898,12.0649-5.4572,13.0123   c-4.3673,0.9474-9.005-3.3423-10.3585-9.5814C194.0946,492.2151,196.5379,486.3893,200.9052,485.4418z M85.7735,571.5566   c-2.0987-3.4544-0.9958-7.9718,2.4586-10.0706c3.4545-2.0987,7.9718-0.9958,10.0706,2.4586   c2.0987,3.4545,0.9958,7.9718-2.4586,10.0706C92.3896,576.1138,87.8722,575.011,85.7735,571.5566z M130.4858,558.2502   c2.7757-0.6021,5.7231,2.1242,6.5833,6.0895c0.8602,3.9652-0.6926,7.6678-3.4683,8.27c-2.7757,0.6021-5.7231-2.1242-6.5833-6.0895   C126.1573,562.5549,127.7101,558.8524,130.4858,558.2502z"/><path d="M400.4949,384.2455c1.569-0.9532,2.0704-3.0056,1.1169-4.5751c-0.9535-1.5695-3.006-2.0702-4.5751-1.1169   c-1.569,0.9533-2.0704,3.0056-1.1169,4.5751C396.8734,384.6981,398.9258,385.1989,400.4949,384.2455z"/><path d="M93.7671,570.5966c1.569-0.9533,2.0704-3.0056,1.1169-4.5751c-0.9536-1.5695-3.006-2.0702-4.5751-1.1169   c-1.569,0.9532-2.0704,3.0056-1.1169,4.5751C90.1456,571.0491,92.198,571.5499,93.7671,570.5966z"/><path d="M438.3428,421.3326c-9.7729,0-25.9209,3.3384-50.1138,12.353c-36.4907,13.5977-82.0781,36.5728-128.3652,64.6943   c-46.2866,28.1211-87.6841,57.9932-116.5669,84.1133c-31.8223,28.7783-39.4956,45.0645-36.0659,50.709   c2.6477,4.3577,13.9826,5.7573,37.5001-0.7171l9.0914-16.3017l13.211-5.2844l10.5688,0.8807l13.6514-7.0459l16.7339-1.7614   l10.4086,0.0982c24.9191-12.0818,51.744-26.7515,78.8236-43.2034c28.8653-17.5375,55.8282-35.7554,79.0413-53.3196   c1.7231-2.841,3.4827-5.6874,5.301-8.5374c17.2562-27.0482,36.3558-50.46,53.7787-65.9211   c4.145-3.6784,8.0422-6.7542,11.7134-9.3258C445.0797,421.86,442.215,421.3326,438.3428,421.3326z M178.8722,589.6098   c-6.7244-11.0682,32.4344-47.1435,87.4638-80.5763s105.0907-51.5629,111.8152-40.4947   c6.7244,11.0682-32.4344,47.1434-87.4638,80.5763C235.6581,582.5479,185.5967,600.678,178.8722,589.6098z"/><ellipse cx="275.2534" cy="523.7113" rx="89.2844" ry="12.2202" transform="matrix(0.8546 -0.5192 0.5192 0.8546 -231.914 219.049)"/><path d="M194.4593,573.1658c-1.1423-0.5705-3.8522,2.5388-6.0527,6.9448s-3.0583,8.4403-1.916,9.0108   c1.1423,0.5705,3.8522-2.5388,6.0527-6.9448S195.6016,573.7363,194.4593,573.1658z"/><path d="M365.2546,477.2466c4.9244,0.0774,8.9326-0.8949,8.9526-2.1716c0.0201-1.2767-3.9556-2.3743-8.88-2.4517   c-4.9244-0.0774-8.9326,0.8949-8.9526,2.1716S360.3303,477.1693,365.2546,477.2466z"/><ellipse cx="316.6413" cy="521.3347" rx="3.1376" ry="6.3578" transform="matrix(0.6474 -0.7621 0.7621 0.6474 -285.6843 425.1292)"/><ellipse cx="254.0726" cy="559.348" rx="3.1376" ry="6.3578" transform="matrix(0.9747 -0.2234 0.2234 0.9747 -118.5392 70.8979)"/><path d="M102.6647,382.8035c0,8.4894,6.881,15.3704,15.368,15.3704c8.4882,0,15.368-6.881,15.368-15.3704   c0-8.487-6.8798-15.368-15.368-15.368C109.5457,367.4355,102.6647,374.3165,102.6647,382.8035z"/><path d="M154.1223,439.6826c-3.8574,0-6.9835,3.127-6.9835,6.9828c0,3.8574,3.1262,6.9843,6.9835,6.9843   c3.8566,0,6.9836-3.127,6.9836-6.9843C161.1059,442.8095,157.9789,439.6826,154.1223,439.6826z"/><path d="M170.9061,407.7825c0-6.1955-5.0244-11.2198-11.221-11.2198c-6.1979,0-11.221,5.0244-11.221,11.2198   c0,6.1979,5.0231,11.2223,11.221,11.2223C165.8818,419.0048,170.9061,413.9804,170.9061,407.7825z"/><path d="M155.5865,325.9816c-11.8264,0-21.4149,9.5887-21.4149,21.4149c0,11.8264,9.5886,21.415,21.4149,21.415   c11.8298,0,21.4166-9.5886,21.4166-21.415C177.003,335.5704,167.4163,325.9816,155.5865,325.9816z"/><path d="M56.8099,238.6258c22.2468,0,40.9579-15.0931,46.4794-35.5939c1.1287,1.4108,2.3147,2.7722,3.5538,4.0845   c-4.8,21.5279-24.0009,37.6211-46.975,37.6211c-2.8881,0-5.7119-0.2687-8.46-0.756c-3.7278,4.5562-6.4175,9.9902-7.7253,15.9429   c-0.5827,2.6521-0.899,5.4039-0.899,8.2308c0,21.1021,17.1061,38.2105,38.2084,38.2105c15.0594,0,28.0775-8.7164,34.3011-21.3761   c0.03,0.0031,0.0605,0.0048,0.0906,0.0078c-2.8162,12.2672-11.5311,22.2756-23.0052,26.8829   c4.4304,9.254,13.8812,15.6467,24.8253,15.6467c15.1965,0,27.5115-12.3174,27.5115-27.5095c0-6.9478-2.5812-13.2894-6.8303-18.1316   c17.8529-7.0421,30.4918-24.4334,30.4918-44.7872c0-3.6358-0.4163-7.1725-1.1802-10.5781   c20.6338-4.0002,37.8274-17.6405,46.6842-36.0575c2.3281,0.5098,4.7435,0.7864,7.2247,0.7864   c16.5897,0,30.3641-12.0198,33.113-27.8265c0.3278-1.8849,0.5084-3.8204,0.5084-5.7991c0-18.568-15.0534-33.6212-33.6214-33.6212   c-13.7926,0-25.638,8.3055-30.8248,20.1838c1.699-9.7698,7.6057-18.0927,15.7938-23.0242   c-8.4479-10.6241-20.11-18.566-33.5214-22.3638c2.4691-6.3676,3.8378-13.2836,3.8378-20.5233   c0-31.3738-25.4335-56.8074-56.8074-56.8074c-31.2023,0-56.5182,25.1588-56.7944,56.2958   c4.2263-1.2303,8.6904-1.9026,13.3138-1.9026c1.2878,0,2.5594,0.0659,3.8214,0.1663   c-24.4845,1.9485-43.7468,22.4206-43.7468,47.4022c0,24.9858,19.2623,45.4542,43.7468,47.4023   c-1.262,0.1004-2.5336,0.1663-3.8214,0.1663c-17.477,0-32.743-9.4304-41.0117-23.475   c-15.6736,7.9395-26.4233,24.19-26.4233,42.9609c0,8.9466,2.4489,17.3179,6.7004,24.4952   C23.7518,229.1313,39.1678,238.6258,56.8099,238.6258z"/><path d="M31.0721,68.6177c10.551,0,19.1031-8.552,19.1031-19.1008c0-10.5536-8.5521-19.1054-19.1031-19.1054   c-10.5513,0-19.1031,8.5518-19.1031,19.1054C11.969,60.0657,20.5209,68.6177,31.0721,68.6177z"/><path d="M219.9551,101.8393c14.9815,0,27.129-12.1429,27.129-27.1244c0-14.9863-12.1475-27.129-27.129-27.129   c-14.9817,0-27.1266,12.1427-27.1266,27.129C192.8285,89.6964,204.9734,101.8393,219.9551,101.8393z"/><path d="M68.5708,21.3947c5.9084,0,10.6974-4.7889,10.6974-10.696C79.2682,4.7888,74.4792,0,68.5708,0   c-5.9085,0-10.6974,4.7888-10.6974,10.6987C57.8734,16.6058,62.6623,21.3947,68.5708,21.3947z"/><path d="M21.8649,469.9941c0,5.9072,4.7888,10.6961,10.6974,10.6961c5.9084,0,10.6974-4.7889,10.6974-10.6961   c0-5.9098-4.789-10.6987-10.6974-10.6987C26.6537,459.2954,21.8649,464.0843,21.8649,469.9941z"/><polygon points="148.2759,525.0275 159.712,521.3073 159.9875,512.3514 151.9716,505.6354 149.7915,503.8088 142.2134,507.2534    137.5288,520.4807 139.1039,521.147  "/><rect height="1.678" transform="matrix(0.9472 -0.3206 0.3206 0.9472 -148.0278 169.7549)" width="40.0638" x="421.5447" y="533.6379"/><rect height="1.678" transform="matrix(0.9472 -0.3206 0.3206 0.9472 -150.1688 170.8955)" width="40.0638" x="423.9384" y="540.7111"/><rect height="1.678" transform="matrix(0.9472 -0.3206 0.3206 0.9472 -149.0982 170.3251)" width="83.1111" x="401.2179" y="537.1744"/><path d="M486.6078,419.4543c-11.2263-7.1622-27.8068-1.4998-47.9487,16.3748c-17.0865,15.1626-35.8672,38.2009-52.8819,64.8704   c-32.8553,51.4989-55.2392,110.3317-31.1833,125.679c6.2086,3.961,12.8352,6.9089,19.7401,8.8963l6.4825-4.5378   c-1.1523-0.2488-2.2949-0.533-3.432-0.837l20.5432-29.439l21.2485,2.1904l12.7202-11.3906l13.4048-9.1484l11.4063,9.4697   l21.3123,2.4734c-0.3058,0.32-0.616,0.6323-0.924,0.9487l5.8208,2.587c5.8126-6.1422,11.2482-12.9144,16.1877-20.2819   l4.2169,2.6903l39.5724,25.2465c-0.6133,3.5984,0.9222,7.379,4.1929,9.4656c4.357,2.7797,10.1424,1.501,12.9221-2.856   c2.7797-4.357,1.501-10.1424-2.856-12.9221c-3.2708-2.0867-7.3462-1.8859-10.351,0.1869l-39.5724-25.2466l-4.2169-2.6903   C537.2431,514.7386,530.1958,447.2626,486.6078,419.4543z M457.3228,590.1427l-11.9336-9.9072l-14.4155,9.8477l-12.3032,11.0078   l-21.4673-2.2119l-21.3512,30.5947c-6.3082-1.8371-12.3602-4.5357-18.0309-8.1535c-8.6025-5.4882-9.6101-20.9745-2.8375-43.6046   c6.3952-21.3696,19.1278-47.575,35.852-73.7891c16.7241-26.2142,35.1226-48.8049,51.8064-63.6105   c17.6679-15.679,32.1364-21.2918,40.7389-15.8036c7.7969,4.9743,14.3318,11.3259,19.5759,18.7208l-24.0334,22.785l29.4313-13.9412   c16.8586,32.1931,13.3525,78.7319-12.3167,118.9667c-5.0466,7.9102-10.6785,15.141-16.741,21.6496L457.3228,590.1427z    M555.0017,602.3057c2.4905,1.5888,3.2239,4.9075,1.6346,7.3988c-1.5889,2.4904-4.9076,3.2239-7.398,1.6351   c-2.4908-1.5891-3.2244-4.9078-1.6355-7.3983C549.1922,601.45,552.5109,600.7166,555.0017,602.3057z"/><path d="M420.3232,621.6593l5.3066,3.9795l11.1426,2.1572l2.2505-11.5166L420.3232,621.6593z M435.5879,626.0382l-9.334-1.8057   l-2.6201-1.9658l13.4468-3.8682L435.5879,626.0382z"/><path d="M459.9009,619.9044l-7.2793-6.2578l-8.3965,3.958l-4.2412,9.3828l12.7114-0.375L459.9009,619.9044z M442.3394,625.4171   l3.0254-6.6914l7.0166-3.3076l5.2705,4.5313l-5.5649,5.1807L442.3394,625.4171z"/><path d="M408.9155,625.1661l1.4829,2.0127l2.4717,1.4971l3.2563-0.6797l1.4419-2.459l-2.8765-2.1758L408.9155,625.1661z    M415.5996,625.9298l-0.4302,0.7344l-2.0278,0.4219l-1.7119-1.0361l-0.0581-0.0791l3.0313-0.9473L415.5996,625.9298z"/><path d="M462.3926,620.9825l1.4829,2.0127l2.4717,1.4971l3.2563-0.6797l1.4419-2.457l-2.876-2.1777L462.3926,620.9825z    M468.6465,622.4806l-2.0278,0.4219l-1.7119-1.0361l-0.0581-0.0791l3.0308-0.9473l1.1973,0.9063L468.6465,622.4806z"/><polygon points="434.814,653.8707 427.7626,658.9073 435.1288,658.8444 436.5139,656.2001  "/><polygon points="419.4407,651.6884 417.2419,651.3589 415.454,652.4469 416.1653,653.7039 419.2095,653.0496  "/><path d="M374.9621,643.1484l-15.695-1.5839l-27.6733,11.9287l17.9033,4.9727l36.0488,2.6855l18.7017-11.0303l-2.2252-0.8741   l-11.5366-4.5321L374.9621,643.1484z M400.8354,650.3927l-15.647,9.2275l-35.3613-2.6191l-13.7324-3.8145l23.4097-10.0908   l16.4937,1.6498l14.0356,1.4039l8.0623,3.1671L400.8354,650.3927z"/><path d="M391.688,663.7101l12.0835,0.6123l9.7505,1.1982l7.291-6.5244l-11.0142-6.5332L391.688,663.7101z M418.2885,659.2423   l-5.2597,4.7061l-9.1279-1.1191l-7.3496-0.373l13.2651-8.2393L418.2885,659.2423z"/><path d="M337.4517,664.6788l-8.4175-4.5156l-8.4849,1.0596l-3.9038,5.3428l7.9502,3.1016L337.4517,664.6788z M321.3784,662.631   l7.3677-0.9209l5.1245,2.75l-9.2729,3.5977l-5.5908-2.1816L321.3784,662.631z"/><path d="M353.2124,660.8829l-11.0269,4.0283l4.8779,3.7441l6.6006-0.8359l5.7485,2.917l8.6099-6.6152l-8.1123-0.9482   L353.2124,660.8829z M359.2485,668.9708l-5.3159-2.6982l-6.4453,0.8164l-2.2227-1.7051l7.9644-2.9092l6.272,2.1436l4.6787,0.5635   L359.2485,668.9708z"/><polygon points="377.4958,664.0734 376.7527,662.3394 372.7068,662.7523 372.2114,664.4862 375.0187,665.2293  "/><polygon points="372.0563,670.4875 372.6647,668.7899 369.9122,667.8638 367.3646,668.8544 367.9921,670.6335  "/><polygon points="380.6057,666.9971 383.6499,666.3428 383.8811,664.9816 381.6823,664.6522 379.8944,665.7401  "/><polygon points="325.2198,656.3865 326.6049,653.7423 324.905,651.4128 318.9545,652.9269 317.8536,656.4495  "/><polygon points="301.0096,661.0277 305.6661,660.9879 306.5417,659.3163 305.4671,657.8438 301.7055,658.801  "/><polygon points="413.6609,646.4862 409.6151,646.899 409.1196,648.633 410.8494,649.0908 411.927,649.3761 412.6049,649.0598    414.4041,648.2202  "/><path d="M572.4048,680.0367c0.4977,2.2272,2.7066,3.6292,4.9338,3.1315l88.1873-19.7054c1.4875-0.3369,2.7358-1.2274,3.5533-2.4177   c-4.3586-2.3049-7.6108-5.1041-8.6205-8.1307c-2.2236-6.6621,4.8994-17.0615,7.1357-20.0903   c0.2277-0.3083,0.4606-0.6081,0.6921-0.9103l1.7527-12.6339l0.0068-0.0391c0.3799-2.7285-1.1836-5.4438-3.8779-6.4165   l-0.001-0.0005c-0.5918-0.2021-0.9717-0.3145-1.4375-0.4531l-1.3232-0.3735c-0.877-0.2373-1.748-0.4541-2.6211-0.6567   c-1.7441-0.4014-3.4922-0.7461-5.251-1.0303c-3.2913-0.5367-6.6205-0.8647-9.9781-0.9736   c-0.2289-0.0074-0.4567-0.023-0.6859-0.0283c-7.1631-0.1646-14.5527,0.7461-21.5332,3.4302   c-6.9707,2.6479-13.332,7.3008-17.8584,13.1895c-4.5742,5.8765-7.4092,12.6758-9.1592,19.4751   c-0.542,2.1226,0.6709,4.3281,2.7861,4.979c2.1816,0.6714,4.4941-0.5527,5.165-2.7339l0.0068-0.0234   c1.8232-5.9238,4.5273-11.4653,8.334-15.8921c3.7881-4.4404,8.6787-7.6553,14.1787-9.4697   c5.5039-1.8232,11.543-2.3301,17.5889-1.8999c0.5264,0.037,1.0533,0.0897,1.5802,0.1403l0.0834,2.3109   c-0.6111-0.0619-1.2197-0.1141-1.8248-0.1567c-1.2891-0.0918-2.5732-0.1382-3.8184-0.1382c-4.6904,0-9.0264,0.6484-12.8857,1.9268   c-5.1572,1.7012-9.7041,4.7368-13.1523,8.7793c-3.3564,3.9028-6.0068,8.9727-7.8857,15.0762   c-0.8418,2.7393-3.3125,4.5645-6.1533,4.5645c-0.6406,0-1.2773-0.0962-1.8936-0.2856c-3.2832-1.0103-5.1895-4.4131-4.3379-7.7461   c2.0469-7.9531,5.2676-14.7876,9.5723-20.3188c2.9066-3.7814,6.5601-7.101,10.6632-9.758   c-6.8189,1.5126-13.6429,3.4308-15.7375,5.0881c-0.1839,0.1082-0.3696,0.2112-0.5487,0.3325l-17.3465,11.7474l-2.0892,1.4149   l0.5573,8.2195l-8.4641-2.8648l-22.9367,15.5333l-47.7266,6.4771c-2.1348,0.2974-3.7646,2.167-3.6934,4.3696   c0.0771,2.3564,2.0498,4.2051,4.4063,4.1284l50.0859-1.6279c0.7881-0.0288,1.6074-0.2334,2.3486-0.6313l0.6152-0.3306   l32.8057-17.6199l0.7621,2.2015l-11.9429,6.4145l27.9366,1.6329c1.199,0.1182,2.1835,0.1818,2.8297,0.1818h27.9879   l-58.8059,15.7195C573.2453,675.7151,571.9203,677.8684,572.4048,680.0367z"/><path d="M563.0145,641.1202l-73.3184,2.9462c-2.1604,0.0942-3.9616,1.8111-4.0905,4.0167c-0.1376,2.3538,1.659,4.3735,4.0128,4.511   l37.1008,2.1686l20.1981-2.7411L563.0145,641.1202z"/><path d="M289.6333,634.4943c-41.0401,1.7412-71.4141,0.8643-76.1563-1.0654c1.1206-0.5723,4.582-1.7148,15.2515-3.374   c9.9111-1.542,10.6094-2.5469,10.5137-3.7979c-0.1084-1.4229-0.2573-3.3701-40.5977-4.4531   c-0.7878-0.0212-1.5756-0.0413-2.3628-0.0609c-18.7045-0.4664-36.8741-0.5045-37.063-0.5045l-0.0039,2   c9.213,0.0166,20.2753,0.1322,31.1451,0.3636c21.0544,0.4482,41.3854,1.3317,46.1478,2.777   c-1.0415,0.3682-3.2832,0.9521-8.0869,1.6992c-16.2915,2.5342-17.4927,4.0039-17.3418,5.5303   c0.1152,1.1689,0.3081,3.126,24.4106,3.6924c4.021,0.0947,8.3931,0.1406,13.0464,0.1406c12.2437,0,26.4219-0.3232,41.1821-0.9492   L289.6333,634.4943z"/><path d="M663.3042,651.9651c2.4839,7.4444,26.7194,15.1237,38.666,11.1375c11.9468-3.9862,18.3999-16.9007,14.4134-28.8483   c-3.9859-11.9458-16.9016-18.3996-28.8484-14.4134C675.5886,623.8271,660.8203,644.5207,663.3042,651.9651z M696.6288,659.3916   c-0.7538,1.4611-4.4021,1.0788-8.1489-0.8541c-3.7467-1.9329-7.2632-7.3168-7.2632-7.3168s6.2462,0.0927,9.9929,2.0255   C694.9563,655.1791,697.3826,657.9304,696.6288,659.3916z M682.379,635.8031c1.8354-3.7954,4.5961-6.2567,6.1663-5.4974   c1.5701,0.7593,1.3551,4.4516-0.4803,8.247s-6.9268,7.5466-6.9268,7.5466S680.5436,639.5985,682.379,635.8031z"/><polygon points="172.2992,654.0279 183.4529,657.1744 185.166,653.2747 182.3938,649.4291 172.7046,653.1659  "/><path d="M75.9267,635.2013l-9.6739,6.8721l-4.8633,8.6695l18.3962,2.5374l13.3214-5.7092l-7.6122-7.6122L75.9267,635.2013z    M69.821,644.3994l-3.5682,3.0131l-0.3964-0.0793l2.6167-4.1232l8.2465-4.2819l1.1894,2.3788L69.821,644.3994z"/><polygon points="79.9259,665.3091 73.2652,666.2607 75.1683,671.6526 79.9259,670.0668  "/><polygon points="52.5465,670.5281 48.3774,668.236 45.3351,673.4405 51.6441,675.4612  "/><polygon points="131.3307,661.5029 123.4983,658.9941 117.783,664.6908 129.6355,666.9026  "/><polygon points="157.6155,640.1783 150.1875,640.7966 152.3099,644.3 157.6155,643.2696  "/><polygon points="186.2422,636.7349 181.5929,635.2457 178.2002,638.6273 185.2359,639.9402  "/><polygon points="19.4058,669.4676 15.2367,667.1755 12.1944,672.38 18.5035,674.4008  "/><path d="M231.156,646.5958l-9.6738,6.8721l-4.8633,8.6694l18.3962,2.5374l13.3214-5.7092l-7.6122-7.6122L231.156,646.5958z    M225.0504,655.7939l-3.5682,3.0132l-0.3965-0.0793l2.6167-4.1233l8.2466-4.2819l1.1894,2.3788L225.0504,655.7939z"/><polygon points="253.5169,671.6526 258.2745,670.0668 258.2745,665.3091 251.6138,666.2607  "/><polygon points="223.6838,673.4405 229.9927,675.4612 230.8951,670.5281 226.726,668.236  "/><polygon points="264.2601,651.1495 276.1125,653.3613 277.8077,647.9616 269.9754,645.4528  "/><polygon points="295.0099,655.371 287.5821,655.9893 289.7043,659.4927 295.0099,658.4623  "/><polygon points="209.6443,660.2199 205.4752,657.9279 202.433,663.1323 208.742,665.153  "/><path d="M322.7006,624.2324l-7.7977-9.0996l-10.2126-6.0986l-11.3245,6.8l-6.1392,9.2061l20.2006,4.3894L322.7006,624.2324z    M302.2729,622.0411l-4.894,1.678l0.9788-2.3771l3.3559-1.1186l3.356,0.839L302.2729,622.0411z M297.1273,618.7208l-4.218,3.0391   l-0.4332-0.1219l3.2568-4.3525l9.5189-4.0472l1.1167,2.7419L297.1273,618.7208z"/><rect height="4.1835" transform="matrix(0.9944 -0.1055 0.1055 0.9944 -67.8944 52.1456)" width="41.1743" x="438.5197" y="665.9449"/><path d="M711.9428,614.8716c-2.6871-1.213-5.4377-0.1302-5.5535-0.0837c-0.5106,0.2059-0.7567,0.7851-0.553,1.2968   c0.0137,0.035,0.0295,0.0687,0.0468,0.1012c0.236,0.4425,0.773,0.6464,1.2505,0.4584c0.0206-0.0082,2.1034-0.8093,4.0021,0.0574   c1.216,0.5546,2.137,1.6953,2.7346,3.3909c0.184,0.5195,0.7552,0.7936,1.276,0.61c0.5211-0.1841,0.7936-0.7552,0.6099-1.2762   C714.9659,617.189,713.6834,615.6567,711.9428,614.8716z"/><path d="M719.1257,618.7768c0.5275-0.1637,0.822-0.7238,0.6585-1.2515c-1.0493-3.3757-2.8522-5.7335-5.361-7.0074   c-3.8182-1.9393-7.8314-0.603-8.0008-0.545c-0.5213,0.1784-0.7986,0.7449-0.6215,1.2669c0.0179,0.0524,0.0397,0.1025,0.0649,0.1499   c0.226,0.4237,0.7322,0.6341,1.202,0.4763c0.0338-0.0114,3.4137-1.1176,6.4671,0.444c2.0001,1.0225,3.4608,2.9752,4.3388,5.8087   C718.0404,618.6459,718.5986,618.9403,719.1257,618.7768z"/><path d="M779.2325,518.2578c-28.8971,15.9849-45.5793,41.1782-46.4249,42.4758c-2.4097,3.6973-1.3657,8.6436,2.3286,11.0586   c1.3491,0.8818,2.8657,1.3027,4.3662,1.3027c2.6089,0,5.1675-1.2734,6.7041-3.6172c0.1949-0.2971,17.3651-26.0758,45.7562-39.7795   C786.5054,527.5216,781.9798,523.4596,779.2325,518.2578z"/><path d="M842.2195,618.4608l19.0313-43.7188c1.4512-3.3337,1.3218-6.9492-0.0386-10.0325l-13.0106-45.5188   c27.8915,4.9156,53.6973,18.1451,54.0353,18.3206c1.1787,0.6123,2.4395,0.9028,3.6816,0.9023c2.8901,0,5.6812-1.5713,7.106-4.313   c2.0371-3.9209,0.5098-8.7505-3.4106-10.7876c-1.9135-0.9944-45.3123-23.2832-84.2125-21.8688   c0.1708,0.799,0.3091,1.6111,0.4023,2.4388c1.5303,13.5898-8.2793,25.8896-21.8682,27.4199   c-0.9307,0.1055-1.874,0.1582-2.8037,0.1582c-1.5795,0-3.127-0.1486-4.6287-0.4328l11.7454,44.9746l-28.9995,32.0593   c-1.9951,2.2061-3.1387,5.0518-3.2246,8.0254l-1.5,52c-0.1992,6.9004,5.2344,12.6563,12.1348,12.8555   c0.1221,0.0029,0.2451,0.0049,0.3672,0.0049c6.7363,0,12.292-5.3613,12.4883-12.1396l1.3672-47.3926l24.6465-27.2471   l-8.4697,19.4561c-1.4248,3.2715-1.3828,6.9961,0.1143,10.2344l23.5,50.834c2.1123,4.5684,6.6328,7.2578,11.3545,7.2578   c1.7559,0,3.5391-0.3711,5.2373-1.1563c6.2666-2.8975,8.998-10.3252,6.1016-16.5918L842.2195,618.4608z"/><path d="M826.2318,491.8123c0.0356,0.0094,0.072,0.017,0.1093,0.0222c0.5449,0.0806,1.0519-0.2923,1.1348-0.8365   c0.0186-0.1234,0.4395-3.0493-1.3591-5.3852c-1.1644-1.5134-2.9507-2.4089-5.31-2.6633c-0.5493-0.059-1.0424,0.3377-1.1017,0.8871   c-0.0589,0.549,0.3394,1.0418,0.8872,1.1014c1.7876,0.1915,3.1097,0.8253,3.9291,1.8811c1.2803,1.6484,0.9799,3.8597,0.9766,3.8816   C825.4249,491.2087,825.7469,491.6844,826.2318,491.8123z"/><path d="M830.9034,490.7255c0.0519,0.0137,0.1057,0.0233,0.1608,0.0287c0.5488,0.0522,1.0363-0.3479,1.09-0.8963   c0.0174-0.1782,0.3946-4.3912-2.3712-7.6607c-1.817-2.1484-4.5262-3.3605-8.0529-3.605c-0.5511-0.0377-1.0284,0.3777-1.0664,0.9288   c-0.0378,0.5505,0.3771,1.0261,0.9286,1.0669c2.9595,0.2025,5.1959,1.1749,6.6511,2.886c2.2222,2.6122,1.9232,6.1561,1.9199,6.1915   C830.1179,490.1589,830.439,490.6031,830.9034,490.7255z"/><path d="M803.6774,529.0179c12.3478-1.3905,21.2314-12.528,19.8408-24.8766c-1.3907-12.3488-12.5289-21.2313-24.8766-19.8407   c-12.3496,1.3907-21.2314,12.5278-19.8407,24.8766C780.1914,521.5259,791.3278,530.4088,803.6774,529.0179z M794.7551,509.1422   c2.776-1.163,6.4261,1.2357,8.153,5.3576c1.7267,4.1218,0.8762,8.406-1.8997,9.569c-2.7759,1.1629-6.4261-1.2358-8.1529-5.3577   C791.1286,514.5893,791.9791,510.3051,794.7551,509.1422z"/><path d="M798.688,466.9709c-1.5726-0.3424-2.911,0.64-3.1989,1.9623c-0.3117,1.4315,0.361,2.8137,2.1852,3.2109   c1.6802,0.3658,2.911-0.64,3.2148-2.0351C801.2005,468.6791,800.441,467.3527,798.688,466.9709z"/><path d="M804.9296,449.8306c0.2414-1.1085-0.1514-2.0549-1.868-2.4286c-1.6802-0.3658-2.4385,0.3665-2.6567,1.3688l-0.8796,4.0399   l-1.7836,11.9705l2.9677,0.6461l3.3561-11.628L804.9296,449.8306z"/><path d="M816.2824,462.5266c3.007-1.256,4.4335-2.818,5.0173-5.4991c0.5372-2.4672-0.5048-5.7644-5.368-6.8233   c-2.4672-0.5372-5.2405-0.3548-6.8548,0.0052l-1.1289,5.1848l3.8352,1.1337l0.4514-2.073c0.1089-0.5004,0.3503-0.748,0.6873-0.7493   c0.4969-0.0427,1.0685,0.0818,1.6766,0.2142c1.3937,0.3034,2.1404,1.1776,1.8287,2.6091c-0.4048,1.8591-1.5665,2.205-3.3531,3.0136   c-2.487,1.1072-3.7864,1.9106-4.1536,4.9756l-0.3104,2.6293l3.7546,0.8176l0.3738-1.7166   C813.2368,463.9601,813.8098,463.5607,816.2824,462.5266z"/><path d="M810.1645,469.4698c-1.574-0.3427-2.8954,0.5687-3.1989,1.9623c-0.3117,1.4315,0.4039,2.7849,2.1568,3.1666   c1.6802,0.3658,2.9186-0.6749,3.2068-1.9987C812.6482,471.1351,811.8796,469.8433,810.1645,469.4698z"/><polygon points="779.1545,484.4517 744.5326,453.5232 740.8328,456.1683 777.4827,485.7611  "/><polygon points="787.1787,481.355 773.5511,436.9744 769.0151,437.3244 785.0707,481.6108  "/><polygon points="725.4847,485.4085 771.553,495.2437 772.4521,493.3217 727.5908,481.3752  "/></g></svg>