<?xml version="1.0" ?><svg enable-background="new 0 0 552.502 413.1745" id="Layer_1" version="1.1" viewBox="0 0 552.502 413.1745" xml:space="preserve" xmlns="http://www.w3.org/2000/svg" xmlns:xlink="http://www.w3.org/1999/xlink"><g><path d="M292.4608,184.4063c0.1076,0.0693,0.2202,0.1238,0.3292,0.189l-10.1251,11.0237l1.1929,1.2154l8.8125-8.6559l7.1962-7.0684   l-2.0925-1.9412l-3.6003,3.9199c-3.7815-2.9775-4.7512-8.3966-2.094-12.5251c2.7144-4.2155,8.2161-5.539,12.535-3.129   c-0.0662,0.0965-0.1399,0.1848-0.2037,0.2839c-1.3185,2.048-1.9108,4.3535-1.8477,6.6171c0.2327-1.158,0.6724-2.2939,1.3502-3.347   c2.9076-4.5191,8.9272-5.8242,13.4464-2.9167c4.5177,2.9083,5.8226,8.9291,2.9153,13.447   c-1.3796,2.1428-3.4623,3.5526-5.7502,4.143c1.3054-0.0372,2.5927-0.3026,3.8124-0.7652c0.7028,2.5099,0.3793,5.2951-1.1422,7.6591   c-2.8218,4.3861-8.6672,5.6535-13.053,2.8307c-1.5242-0.9808-2.6618-2.3307-3.3921-3.8533l4.7123-2.6375l-1.4067-2.4849   l-8.2906,5.2164l-10.7031,6.7344l0.9094,1.4432l12.2814-6.8739c0.8842,2.2464,2.4453,4.2501,4.63,5.6566   c5.54,3.5652,12.9225,1.9655,16.4891-3.5753c2.2148-3.4405,2.4332-7.5909,0.9559-11.0972c1.4306-0.8842,2.6976-2.0814,3.6685-3.59   c3.481-5.4088,1.9195-12.6148-3.4883-16.0955c-4.7894-3.083-10.9818-2.2054-14.7557,1.7885   c-0.3152-0.2542-0.6447-0.4959-0.9929-0.72c-5.2767-3.3964-12.3063-1.8722-15.7039,3.4042   C285.6601,173.9791,287.184,181.0098,292.4608,184.4063z"/><path d="M81.1179,266.7556c-0.9937-5.4557-6.2219-9.0743-11.6788-8.0811c-3.3886,0.6166-6.0656,2.8687-7.3718,5.7929   c-1.3661-0.3711-2.8306-0.4616-4.3163-0.191c-5.3266,0.97-8.8587,6.0731-7.8892,11.399c0.8585,4.7169,4.9586,8.0192,9.5837,8.0428   c0.025,0.3399,0.0657,0.6815,0.1282,1.0244c0.9459,5.1968,5.9248,8.6418,11.1221,7.6967   c5.1963-0.9468,8.6422-5.9261,7.6963-11.1229c-0.0193-0.106-0.0504-0.2066-0.0731-0.3111l12.5986-0.1139l0.0613-1.4321   l-10.3883-0.4406l-8.483-0.3598l0.0098,2.4025l4.4799-0.0405c0.3438,4.0368-2.4302,7.7487-6.496,8.4889   c-4.1522,0.7551-8.1291-1.8661-9.1309-5.9069c0.0974-0.0148,0.1941-0.0203,0.2916-0.038c2.0172-0.367,3.775-1.3284,5.1303-2.6687   c-0.8456,0.5228-1.7968,0.9056-2.8339,1.0944c-4.45,0.8109-8.7134-2.1393-9.5244-6.5892   c-0.8096-4.4495,2.1414-8.7134,6.5905-9.5239c2.1107-0.384,4.1749,0.0859,5.8534,1.153c-0.7736-0.7812-1.6769-1.42-2.6627-1.9039   c1.1389-1.8752,3.0372-3.2777,5.3653-3.7016c4.3188-0.7872,8.4589,2.0776,9.2454,6.3969c0.2734,1.501,0.0976,2.9765-0.4185,4.3008   l-4.3309-1.3804l-0.7188,2.2935l7.9738,2.0974l10.294,2.7078l0.3643-1.3889l-11.2873-3.5978   C81.1751,271.0191,81.5094,268.9074,81.1179,266.7556z"/><polygon points="146.7006,316.0003 145.3515,318.4469 146.5057,319.5939 149.7078,319.573 149.4881,315.2461  "/><polygon points="305.4631,215.7662 304.9077,220.5059 311.3475,220.9733 310.7424,216.7125 307.3708,214.2691  "/><path d="M126.5952,172.0085c0,0-17.3844,11.4532-32.2996-19.2829c-60.9611,78.7377,44.9238,136.8126,44.9238,136.8126   c2.0192-4.6192,4.7213-10.2671,7.6349-16.3385l-9.9481-5.0221l14.0197-3.5525l0.0345-0.0087   c0.1146-0.2413,0.2292-0.4814,0.3438-0.7231c-2.9581-1.9304-5.5554-4.6895-7.5182-7.0551   c-3.1932-3.5206-5.2717-7.7939-8.4647-11.315c-3.8191-3.8126-10.5782-9.5026-16.3586-9.6505   c8.2447-0.2296,12.3393-1.3762,17.7149-0.9069c4.8607,0.483,7.9548,4.2126,11.761,7.5089   c1.6878,1.5369,3.7635,4.0094,6.0886,6.6897c-6.6165-12.3643-12.9368-27.8531-10.174-38.2237   c5.5735,11.4855,12.6051,11.2231,17.3793,9.1358l-2.8967-4.8962l7.4243,2.0512c0.5847-0.4913,0.9108-0.8255,0.9108-0.8255   s-33.0021-28.4692-17.2466-53.3013c6.3562,28.5046,31.9601,26.5907,31.9601,26.5907s6.1083-17.2687-9.5059-43.1738   c28.8174,14.0366,41.2269,33.3005,46.2698,39.0157l1.2342-3.2424l1.7633,3.3034c0.309-2.1329,0.1597-6.5131-0.1162-13.8583   c10.9866,15.4152,16.0964,31.9816,17.1389,45.7359l2.5919,4.8531l9.3295-9.9014c8.4257-20.121,9.7888-50.0434-8.1329-80.4625   c-1.6978-2.8817-3.558-5.7676-5.6125-8.6503c0.8108,21.5892-1.1402,33.4759-3.9506,39.8691   c0.918-18.7372-4.1315-40.6649-19.6208-62.398c0.2814,7.4918,0.2294,13.8127-0.0747,19.1446   c-2.1064,36.9275-16.3498,26.2623-16.3498,26.2623c3.9513-5.1823,9.4861-24.0398-8.9515-47.0663   c-9.7328-12.1552-26.1427-25.4716-52.998-38.5525c21.7911,36.1529,17.0491,61.7564,15.5266,67.5831   c-0.2171,0.8307-0.3688,1.2599-0.3688,1.2599s-0.9796,0.4246-2.5775,0.797c-0.1265-0.2348-0.259-0.4551-0.3834-0.6949   c-3.2947-6.3478-5.8377-14.4357-6.7615-24.7182c-4.569,7.2012-7.1437,14.7511-8.3102,22.2848   c-5.0867-4.0286-9.6268-12.1206-11.032-27.7606C95.8689,138.9212,126.5952,172.0085,126.5952,172.0085z M135.507,201.3031   c-0.0175,1.4753-1.2275,2.6568-2.7031,2.6392c-1.4749-0.0175-2.6564-1.2275-2.6389-2.7028   c0.0175-1.4752,1.2275-2.6567,2.7024-2.6392C134.343,198.6179,135.5245,199.8278,135.507,201.3031z M100.4059,191.1082   c0.0175-1.4752,1.2275-2.6567,2.7024-2.6392c1.4756,0.0176,2.6571,1.2275,2.6395,2.7028   c-0.0175,1.4753-1.2275,2.6567-2.7031,2.6392C101.5698,193.7934,100.3883,192.5835,100.4059,191.1082z M126.1873,223.3885   c-2.2457-0.0267-4.0446-1.8689-4.0179-4.1151c0.0267-2.2462,1.869-4.0452,4.1147-4.0185c2.2467,0.0267,4.0457,1.869,4.0189,4.1152   C130.2762,221.6163,128.4341,223.4152,126.1873,223.3885z"/><path d="M14.4811,168.6306c12.9698,9.6129,24.984,18.9213,24.5722,34.4207c-10.0311,1.0287-18.6151-8.4916-21.5994-17.223   c1.6732,15.2425,9.2081,29.9716,25.7459,33.6422c12.111,2.1002,24.2223,4.2007,26.155,19.8335   c1.7694-8.3665-3.1056-14.8531-7.268-19.4185c-4.0338-3.5223-8.5908-4.4395-11.3199-9.3935   c-1.6887-3.3889-0.6395-8.5982-1.5464-12.5067C44.9452,180.525,31.1888,175.3823,14.4811,168.6306z"/><path d="M55.0165,148.4249c-3.2396-1.7677-4.1418-7.2761-4.4727-10.3987c-7.0801,13.2866,5.54,40.6014,14.4376,47.3029   c-2.0843-6.3483-1.4741-23.4543,3.679-27.4998c10.1966-8.0037,5.3972-24.6879,2.5458-28.0912   c0.9736,9.7222-3.2058,18.8207-6.8924,20.3379c3.8998-10.5363,3.203-21.7909-13.1099-33.6036   C57.9047,126.1798,63.5449,140.8035,55.0165,148.4249z"/><path d="M261.894,138.6448c5.292,3.862,8.0032,19.2681,6.1431,25.6857c8.6567-7.0099,20.3096-34.7511,12.7671-47.7809   c-0.2209,3.1324-0.9291,8.6691-4.1046,10.5495c-8.791-7.3173-1.5848-21.2004,4.7708-31.1373   c-15.8879,12.3784-18.272,22.721-14.0045,33.1138c-3.7376-1.3867-8.2341-10.3328-7.6025-20.0832   C257.1333,112.4937,251.4225,131.0042,261.894,138.6448z"/><path d="M211.9636,81.815c5.4655,0.065,9.9469-4.3111,10.0118-9.7754c0.065-5.4641-4.3111-9.9457-9.7766-10.0107   c-5.463-0.065-9.9445,4.3112-10.0095,9.7754C202.1244,77.2685,206.5006,81.75,211.9636,81.815z"/><path d="M231.6696,97.3976c4.371,0.052,7.9551-3.4478,8.0071-7.8179c0.052-4.37-3.4478-7.9542-7.8188-8.0061   c-4.3691-0.052-7.9532,3.4479-8.0052,7.8179C223.8006,93.7616,227.3005,97.3457,231.6696,97.3976z"/><path d="M79.9846,111.7467c-0.0519,4.3701,3.448,7.9542,7.817,8.0062c4.371,0.0519,7.9551-3.4479,8.0071-7.8179   c0.052-4.3701-3.4478-7.9542-7.8188-8.0062C83.6207,103.8767,80.0366,107.3767,79.9846,111.7467z"/><path d="M108.6023,78.9823c2.7687,0.0329,5.0389-2.1839,5.0718-4.952c0.0329-2.768-2.184-5.0383-4.9526-5.0712   c-2.7674-0.0329-5.0377,2.184-5.0706,4.952C103.6179,76.6791,105.8348,78.9494,108.6023,78.9823z"/><path d="M129.4184,31.2605c2.7687,0.033,5.0389-2.1839,5.0718-4.952c0.0329-2.768-2.184-5.0383-4.9526-5.0712   c-2.7674-0.0329-5.0377,2.184-5.0706,4.952C124.4341,28.9574,126.6509,31.2276,129.4184,31.2605z"/><path d="M161.8427,63.1758c2.3454,0.0279,4.2686-1.85,4.2964-4.1949c0.0279-2.3448-1.85-4.268-4.1954-4.2959   c-2.3444-0.0279-4.2675,1.8501-4.2954,4.1949S159.4984,63.1479,161.8427,63.1758z"/><path d="M210.1637,49.7194c3.4964,0.0416,6.3633-2.7579,6.4049-6.2536c0.0416-3.4955-2.7579-6.3625-6.2543-6.4041   c-3.4949-0.0416-6.3618,2.758-6.4034,6.2536C203.8693,46.8109,206.6689,49.6778,210.1637,49.7194z"/><path d="M184.1768,66.4848c3.4965,0.0416,6.3633-2.7579,6.4049-6.2536c0.0416-3.4956-2.7579-6.3626-6.2543-6.4042   c-3.4948-0.0416-6.3618,2.7581-6.4034,6.2536C177.8824,63.5763,180.682,66.4432,184.1768,66.4848z"/><path d="M168.8978,9.0137c2.4897,0.0297,4.5313-1.9639,4.5609-4.4531c0.0296-2.4891-1.9639-4.5307-4.4536-4.5603   c-2.4886-0.0296-4.5302,1.964-4.5598,4.4531C164.4157,6.9426,166.4092,8.9841,168.8978,9.0137z"/><path d="M320.3997,270.525c3.5979,5.054,10.6124,6.2358,15.6678,2.6378c3.1394-2.2341,4.7812-5.7869,4.7151-9.3692   c1.56-0.2731,3.0864-0.877,4.4626-1.8568c4.9345-3.5126,6.0881-10.3594,2.5762-15.2933   c-3.1101-4.3699-8.8315-5.7672-13.5275-3.5942c-0.1868-0.3324-0.3903-0.6591-0.6165-0.9767   c-3.4267-4.8144-10.1062-5.939-14.9214-2.5129c-4.8135,3.4273-5.9387,10.1077-2.512,14.9221   c0.0699,0.0982,0.1492,0.1852,0.2217,0.2803l-12.7069,6.0998l0.6182,1.4797l10.7314-4.4882l8.7632-3.6651l-1.1511-2.4288   l-4.5184,2.169c-2.2657-3.9255-1.2191-9.0029,2.5475-11.684c3.847-2.7371,9.1203-1.9713,12.0543,1.6459   c-0.0916,0.0612-0.1869,0.1127-0.2773,0.1771c-1.8688,1.3299-3.1926,3.1387-3.9288,5.1401   c0.6082-0.9312,1.3898-1.7708,2.3506-2.4547c4.1222-2.9351,9.8419-1.972,12.777,2.15c2.9337,4.1223,1.97,9.843-2.1515,12.7772   c-1.9554,1.3914-4.2693,1.8961-6.4762,1.6125c1.1545,0.4237,2.3729,0.6416,3.6011,0.6635   c-0.2628,2.4404-1.5194,4.7627-3.6762,6.2979c-4.0005,2.8488-9.5549,1.9136-12.4031-2.0878   c-0.9899-1.3904-1.5127-2.9685-1.619-4.5551l5.0424-0.6589l-0.3613-2.6645l-9.0728,1.6631l-11.7129,2.1471l0.2907,1.5798   l13.1417-1.7174C318.3165,266.2337,318.981,268.5315,320.3997,270.525z"/><path d="M220.7065,195.3302l-14.6459,38.5051l-35.7435-9.8729l21.2659,35.9481l-39.3304,9.9594l40.489,20.4553l-22.8884,38.5807   l41.3829-14.9418l2.8546,43.036l31.8063-33.3314l17.1522,29.4669l5.241-36.0773l35.1487,12.9388l-18.087-32.5355l33.5812-14.3111   l-33.9841-11.9683l19.919-37.8529l-33.4656,6.3097l-4.2421-36.9025l-27.1315,28.782L220.7065,195.3302z M259.247,240.9923   l1.5225,13.2521l12.9499-2.4398l8.3532-1.5709l-7.9395,15.0791l-6.72,12.773l13.5729,4.7805l3.8467,1.3572l-4.2982,1.8304   l-12.5536,5.3502l6.709,12.075l1.9435,3.5051l-4.2181-1.5542l-14.0698-5.1758l-2.165,14.9305l-0.2075,1.4488l-7.7397-13.2913   l-11.1718,11.7028l-12.6164,13.2206l-0.9943-15.0516l-1.8028-15.4015l-14.5936,4.4919l-9.0458,3.2669l5.2372-8.8284l6.8089-11.4743   l-11.8988-6.0087l-10.8577-5.4869l7.3259-1.8547l15.9014-4.0292l-8.4523-14.2872l-5.6965-9.6335l6.527,1.8043l10.6392,2.9418   l3.946-10.3771l5.1191-13.4583l6.6541,12.473l8.0441,15.056l11.6088-12.3204l9.1122-9.6685L259.247,240.9923z"/><polygon points="246.8165,271.0923 246.1685,268.3746 244.5429,268.3027 242.1881,270.4726 245.2619,273.5258  "/><polygon points="238.2892,285.414 236.94,287.8606 238.0942,289.0075 241.2963,288.9866 241.0767,284.6598  "/><polygon points="232.1371,261.7563 232.1368,264.1813 235.5222,267.5447 239.866,262.7677 236.1408,260.6129  "/><polygon points="222.1301,271.385 218.7587,268.9416 216.8509,270.4386 216.2955,275.1784 222.7352,275.6458  "/><polygon points="253.7368,278.0678 251.382,280.2378 254.4557,283.2909 256.0104,280.8575 255.3624,278.1397  "/><polygon points="284.6588,220.1117 285.813,221.2587 289.0151,221.2377 288.7953,216.9109 286.0079,217.6651  "/><polygon points="233.8736,274.5554 229.8699,275.6988 229.8696,278.1238 233.255,281.4872 237.5988,276.7102  "/><polygon points="221.9185,286.5973 220.0107,288.0944 219.4554,292.8342 225.8951,293.3015 225.29,289.0407  "/><polygon points="255.3207,264.3305 254.2727,265.5752 254.5573,268.7647 258.8513,268.1894 257.8701,265.4735  "/><polygon points="120.2802,300.0609 117.0394,295.6671 111.1432,297.7199 111.7983,303.325 115.0421,303.8549  "/><polygon points="94.9754,140.5855 98.0593,144.1461 101.4429,143.496 101.6005,139.5076 98.2777,137.1553 94.8647,138.13  "/><polygon points="12.6307,231.5845 7.4354,230.0778 5.0874,234.3665 7.1133,236.3676 12.7169,236.314  "/><polygon points="186.3837,211.7362 190.4419,208.3137 186.2371,200.1485 179.6853,200.0996 177.534,204.5977 177.534,209.096    180.6632,212.2251  "/><polygon points="36.3289,242.1234 33.8338,241.7529 33.4822,245.1476 35.7431,244.8972 37.0889,243.1557  "/><path d="M524.0628,248.0695c8.1094-5.0436,17.2048-12.636,22.8843-23.4175c6.3574-12.0698,7.2627-25.6382,2.6914-40.3296   c-1.3125-4.2183-5.7979-6.5752-10.0156-5.2617c-4.2188,1.3125-6.5742,5.7969-5.2617,10.0156   c6.4283,20.659-3.426,34.1177-13.9093,42.1481C523.4943,236.1325,524.8797,242.0548,524.0628,248.0695z"/><path d="M390.2322,196.4142c-1.2227,4.2456,1.2275,8.6787,5.4727,9.9019c47.4238,13.6606,62.0713,42.2886,62.6514,43.4585   c0.2067,0.4301,0.4605,0.8261,0.7341,1.2053c-0.6746,6.82-5.6561,48.9847-28.3766,86.6409l-35.4307-18.9941   c-6.085-3.2617-13.6621-0.9736-16.9229,5.1104c-3.2617,6.0845-0.9736,13.6611,5.1104,16.9229l45.54,24.4141   c1.8721,1.0039,3.8965,1.4844,5.8984,1.4844c3.9551,0,7.8193-1.8779,10.2334-5.3125c8.8961-12.6545,15.7851-25.9639,21.118-38.775   c3.2291,1.5747,6.526,3.0892,9.6435,4.4358c-2.2918,10.9529-5.0696,22.1357-8.4276,32.8099l-43.0918,30.7861   c-5.6172,4.0132-6.918,11.8198-2.9043,17.4375c2.4395,3.415,6.2813,5.2344,10.1816,5.2344c2.5146,0,5.0537-0.7568,7.2559-2.3301   l46.4502-33.1851c2.1533-1.5386,3.7627-3.7212,4.5967-6.2329c12.6177-38.0118,17.9364-81.7986,19.9531-103.8534   c-2.6534,1.2954-5.5449,2.1569-8.5835,2.461c-0.001,0.0001-0.001,0.0001-0.002,0.0002c-2.9871,0.2985-5.986,0.0667-8.9158-0.6902   c-13.4745-3.4838-21.6498-17.1723-18.4058-30.6497c-0.4722-0.0905-0.9515-0.1621-1.4426-0.1985   c-0.7703-0.0574-1.5272-0.0333-2.2692,0.0465c-6.4194-10.0364-26.1656-34.9268-70.1644-47.6012   C395.8895,189.7218,391.4549,192.1686,390.2322,196.4142z"/><path d="M477.0131,239.0246c-3.1105,12.0319,4.1224,24.3042,16.1544,27.4147c12.0306,3.108,24.3047-4.1244,27.4152-16.1563   c3.1082-12.0306-4.1262-24.3053-16.1567-27.4134C492.3934,219.761,480.1216,226.9921,477.0131,239.0246z"/><path d="M344.8326,134.7569c0.5231,0.5446,1.3893,0.5621,1.9341,0.0388l0.822-0.7897c0.5447-0.5233,0.562-1.3895,0.0388-1.9341   l-0.8687-0.9042l20.8795-20.058l0.8687,0.9042c0.5231,0.5446,1.3893,0.5621,1.9341,0.0388l0.822-0.7897   c0.5447-0.5233,0.562-1.3895,0.0388-1.934l-0.8687-0.9042l20.8795-20.0581l0.8687,0.9042   c0.5231,0.5446,1.3893,0.5622,1.9341,0.0388l0.822-0.7897c0.5447-0.5233,0.562-1.3895,0.0388-1.9341l-30.1661-31.4015   c-0.5232-0.5446-1.3893-0.5621-1.9341-0.0388l-0.822,0.7897c-0.5448,0.5234-0.562,1.3895-0.0388,1.9341l0.8687,0.9042   l-14.4484,13.8799l2.3345,3.1834l-5.2844,6.6055l0.2202,5.2844l-7.0459,2.6422l-4.6238,4.1835l-4.4037,3.0826l-5.023-2.0929   l-6.2795,6.0324l-0.8686-0.9042c-0.5232-0.5446-1.3893-0.5621-1.9341-0.0388l-0.822,0.7897   c-0.5448,0.5233-0.562,1.3895-0.0388,1.9341L344.8326,134.7569z"/><path d="M1.0404,61.9461c0.4815,0.5821,1.3439,0.6635,1.9258,0.1821l0.9662-0.7992L22.387,83.6385l-0.9662,0.7992   c-0.5819,0.4814-0.6636,1.3438-0.1821,1.9258l0.7266,0.8784c0.4815,0.5821,1.3439,0.6635,1.9258,0.1821l0.9662-0.7993   l18.4545,22.3094l-0.9662,0.7993c-0.5819,0.4813-0.6636,1.3438-0.1821,1.9258l0.7266,0.8783   c0.4815,0.5821,1.3439,0.6635,1.9258,0.1821L62.178,98.3576l-3.7951-7.0174L48.128,85.4149l8.4484-2.6651l-0.3016-8.7845   l5.9385-2.519l1.0198-2.8102l-6.7561-8.1674l0.9661-0.7992c0.5819-0.4813,0.6636-1.3438,0.1821-1.9258l-0.7266-0.8784   c-0.4814-0.582-1.344-0.6635-1.9258-0.1821l-0.9661,0.7992L35.5521,35.173l0.9661-0.7992   c0.5819-0.4813,0.6636-1.3438,0.1821-1.9258l-0.7266-0.8784c-0.4814-0.582-1.344-0.6635-1.9258-0.1821L0.496,59.1419   c-0.5819,0.4814-0.6636,1.3438-0.1821,1.9259L1.0404,61.9461z"/><polygon points="275.1371,33.7819 268.0363,23.3782 258.9537,76.7177 262.917,84.6442  "/><polygon points="233.5797,304.024 234.2108,306.3198 235.5974,306.3337 237.5398,304.417 234.8329,301.9062  "/><polygon points="168.6321,340.107 166.2465,340.7105 165.0626,342.7763 166.03,343.7698 168.7587,343.7968  "/><polygon points="246.5219,360.8288 243.6406,360.3548 242.1476,363.3416 244.4903,365.2445 245.9308,364.2372  "/><polygon points="164.5104,308.8291 162.1349,308.9906 161.8453,310.3467 163.337,312.6317 166.3364,310.4789  "/><polygon points="202.8305,345.0414 205.1212,346.5244 206.9888,343.3396 204.6505,342.5728 202.5449,343.6844  "/><polygon points="206.2858,323.0154 204.7022,322.4961 203.2763,323.2489 203.4697,324.1678 205.0209,325.1722  "/><polygon points="158.9103,371.6618 157.3267,371.1425 155.9008,371.8953 156.0942,372.8142 157.6455,373.8186  "/><polygon points="186.9705,337.0329 187.1639,337.9519 188.7151,338.9562 189.9799,336.7994 188.3964,336.2801  "/><polygon points="148.6375,352.1658 148.8309,353.0847 150.3822,354.0891 151.647,351.9323 150.0634,351.4131  "/><polygon points="201.4651,332.0454 200.3742,330.1146 197.9885,330.7182 196.8047,332.784 197.7721,333.7774 200.5008,333.8045     "/><polygon points="192.0899,360.2892 191.7256,358.6353 190.3299,357.7771 189.6259,358.4213 189.5492,360.2976  "/><polygon points="238.7599,338.9889 239.5729,341.9117 241.9996,341.9287 245.3885,338.5641 242.5237,335.7281 241.196,336.4362    238.4563,337.8974  "/><polygon points="79.3559,350.9876 128.449,328.2401 132.7334,320.4823 83.9028,339.2409  "/><path d="M307.0234,309.7289c0,0,56.2793-41.3857,135.6483-25.5148l-0.5125-7.446c-79.9584-12.5684-134.4745,31.114-134.4745,31.114   L307.0234,309.7289z"/><path d="M451.6258,250.0397l0.8574-0.5156c-4.9443-8.2139-12.4991-15.7896-22.4541-22.5161l-0.5605,0.8281   C439.3026,234.4811,446.7576,241.9518,451.6258,250.0397z"/><path d="M408.5076,216.7843c0.0791,0.0283,7.9551,2.9146,17.3232,8.7017l0.5254-0.8506   c-9.4551-5.8408-17.4277-8.7627-17.5068-8.7915L408.5076,216.7843z"/><path d="M416.5125,224.8283c0.166,0.0518,16.7881,5.3828,30.2803,25.998l0.8359-0.5479   c-13.7012-20.936-30.6523-26.3535-30.8213-26.4058L416.5125,224.8283z"/><rect height="26.6603" transform="matrix(0.4472 -0.8944 0.8944 0.4472 -95.6934 567.5215)" width="1.0001" x="410.7878" y="347.8482"/><rect height="14.4132" transform="matrix(0.4472 -0.8944 0.8944 0.4472 -98.1244 540.5621)" width="1.0001" x="387.762" y="342.4588"/><rect height="31.6861" transform="matrix(0.4326 -0.9016 0.9016 0.4326 -97.2557 565.8238)" width="0.9994" x="400.3898" y="344.3334"/></g></svg>