<?xml version="1.0" ?><svg id="Layer_1" style="enable-background:new 0 0 408.777 197.001;" version="1.1" viewBox="0 0 408.777 197.001" xml:space="preserve" xmlns="http://www.w3.org/2000/svg" xmlns:xlink="http://www.w3.org/1999/xlink"><g><path d="M88.572,114.509c1.542,1.087,3.25,2.249,5.08,3.425l6,28.949l-7.206,6.973c-1.991,1.927-2.838,4.75-2.237,7.454   l6.549,29.453c0.522,2.347,2.077,4.334,4.23,5.404c2.155,1.07,4.676,1.111,6.863,0.11l10.458-4.787   c4-1.831,5.759-6.559,3.928-10.56c-1.831-4.001-6.56-5.759-10.56-3.928l-1.504,0.688l-3.444-15.487l17.416-16.854l0.33,6.063   l0.116,2.136c0.167,3.059,2.073,5.752,4.903,6.926l25.229,10.463c2.047,0.848,4.353,0.807,6.368-0.115l9.18-4.202   c4-1.831,5.759-6.559,3.928-10.56c-1.831-4.001-6.56-5.759-10.56-3.928l-6.021,2.756l-16.483-6.835l3.665-5.807l8.587-13.605   c0.904-1.431,1.327-3.112,1.211-4.801l-0.396-5.732c7.911-1.848,17.689-4.882,31.557-12.97c4.555-2.656,8.334-5.727,11.495-9.02   c0.451,0.218,0.931,0.395,1.439,0.515l36.161,8.56l13.604,25.272c1.26,2.341,3.669,3.684,6.168,3.684   c1.019,0,2.053-0.224,3.03-0.693c3.372-1.622,4.872-5.61,3.405-9.053l-13.137-30.821c-0.729-1.71-2.107-3.06-3.832-3.751   l-19.78-7.939l4.902-1.463l9.375-10.604l20.52,9.669l5.13-0.026l-0.469-3.905l-3.922-1.106l0.628-4.491l-5.11-0.279l0.295-5.317   l-4.606-1.158l0.561-2.23l6.447,1.621l-0.273,4.914l5.311,0.29l-0.698,4.982l3.467,0.978l0.683,5.69l8.545-0.044l2.399-4.097   l-10.38-16.035l-1.761-10.927l-1.933-6.642l8.034-1.784c0,0-2.723-2.681-6.585-5.159l6.829-5.48c0,0-11.38-3.995-19.218-0.461   l-29.519-4.396l-30.117,6.247l-10.064-5.704l2.957,6.332l-9.32-4.984l5.027,6.72l-1.572,0.326l-8.898-3.569l4.246,4.534   l-2.646,0.549l-6.665-2.059l2.85,2.85l-8.629,1.79l4.639,5.74l-11.208-1.698c0,0-22.388,12.282-39.809,30.396   C77.429,92.44,58.356,75.311,41.83,119.987l9.364-1.088l-11.332,6.731c-0.321,0.978-0.642,1.974-0.962,3.004   c-11.559,37.212-25.987,38.887-35.83,35.079s4.471,19.338,35.895,2.892C69.107,150.83,55.831,103.232,88.572,114.509z    M260.663,56.354c-1.185,0.654-2.675,0.225-3.33-0.96c-0.654-1.185-0.225-2.675,0.96-3.33   C259.477,51.41,261.847,55.7,260.663,56.354z"/><path d="M171.521,169.349l-9.179,4.202c-1.442,0.66-2.978,0.995-4.564,0.995c-1.448,0-2.861-0.281-4.2-0.836l-12.273-5.09   c-6.013,2.12-9.537,8.505-7.959,14.814c1.421,5.679,6.517,9.471,12.117,9.47c1.004,0,2.024-0.122,3.042-0.376l22.942-5.737   c0.667,2.374,2.033,4.576,4.081,6.262c2.328,1.916,5.141,2.85,7.938,2.85c3.606,0,7.187-1.554,9.658-4.557l10.339-12.562   l2.06-0.515c5.278,0.065,21.975,0.257,36.341,0.295l3.165,4.135c1.067,1.394,2.371,2.497,3.81,3.304   c2.164,1.607,5.835,2.151,12.155,1.61c17.125-2.758,37.322,1.568,51.386,3.938c10.025,2.605,21.834-1.463,23.734-10.051   c1.08-4.877-0.056-10.931-3.939-16.106c-0.156-0.247-0.324-0.49-0.51-0.724l-20.761-26.085l27.146-19.992   c3.558-2.62,4.317-7.628,1.697-11.186c-2.62-3.557-7.626-4.319-11.186-1.697l-33.833,24.917c-1.75,1.289-2.9,3.234-3.187,5.389   s0.317,4.333,1.671,6.034l7.619,9.573c-1.612-0.29-3.206-0.534-4.794-0.742l21.185,13.694c2.311,1.494,3.901,3.797,4.479,6.487   c0.578,2.69,0.073,5.444-1.42,7.754c-1.907,2.949-5.144,4.709-8.658,4.709c-1.981,0-3.912-0.57-5.583-1.65l-35.827-23.158   c-2.58-1.668-4.235-4.368-4.62-7.32c-0.97,0.126-1.954,0.26-2.96,0.404c-2.039,0.453-3.82,1.037-5.41,1.714   c-0.93,0.013-1.94,0.024-3.022,0.032l-20.47-26.745c-2.318-3.029-5.893-4.833-9.705-4.901c-3.855-0.065-7.449,1.61-9.873,4.554   l-24.754,30.074l-11.482,2.871c-0.004,1.28-0.222,2.563-0.682,3.799C176.214,165.947,174.185,168.13,171.521,169.349z"/><path d="M271.462,156.786l35.826,23.158c1.343,0.868,2.848,1.282,4.335,1.282c2.625,0,5.195-1.29,6.727-3.658   c2.398-3.71,1.335-8.663-2.376-11.062l-31.446-20.327l6.178-38.684c0.696-4.363-2.275-8.465-6.639-9.162   c-4.375-0.699-8.465,2.276-9.161,6.638l-7,43.833C267.405,151.935,268.8,155.065,271.462,156.786z"/><path d="M333.395,156.451c4.696,11.504,17.829,17.025,29.334,12.328c11.505-4.696,17.024-17.83,12.329-29.334   c-4.697-11.506-17.829-17.025-29.334-12.328C334.218,131.813,328.698,144.945,333.395,156.451z M340.054,139.106   c3.622-2.229,9.679,1.035,13.529,7.292c3.849,6.256,4.034,13.134,0.412,15.364c-3.622,2.227-3.12-5.072-6.971-11.329   C343.176,144.177,336.431,141.334,340.054,139.106z"/><path d="M220.184,15.696c-2.889,0.59-4.485,3.078-4.551,3.183c-0.294,0.468-0.154,1.085,0.313,1.379   c0.166,0.104,0.35,0.154,0.532,0.154c0.332,0,0.657-0.165,0.847-0.467c0.012-0.019,1.231-1.876,3.259-2.29   c1.312-0.269,2.734,0.116,4.219,1.145c0.456,0.315,1.077,0.201,1.392-0.253s0.201-1.077-0.253-1.392   C223.992,15.805,222.054,15.314,220.184,15.696z"/><path d="M228.293,14.657c0.332-0.441,0.243-1.068-0.199-1.4c-2.826-2.124-5.667-2.98-8.448-2.543   c-4.231,0.663-6.702,4.096-6.805,4.242c-0.319,0.451-0.212,1.075,0.239,1.394c0.176,0.124,0.377,0.184,0.577,0.184   c0.313,0,0.623-0.147,0.817-0.422c0.021-0.029,2.077-2.888,5.482-3.421c2.22-0.349,4.559,0.38,6.937,2.166   C227.334,15.187,227.961,15.099,228.293,14.657z"/><path d="M302.906,42.33c0.083-0.636-0.247-1.255-0.821-1.54l-11.421-5.658l11.083-9.034c0.489-0.398,0.676-1.061,0.469-1.656   s-0.766-0.998-1.396-1.006l-13.369-0.179l5.378-13.932c0.233-0.605,0.052-1.292-0.451-1.702c-0.502-0.411-1.212-0.45-1.758-0.101   l-12.806,8.214l-1.707-11.289c-0.093-0.618-0.56-1.113-1.171-1.243c-0.611-0.131-1.239,0.133-1.575,0.659l-5.243,8.19L261.62,0.753   c-0.325-0.565-0.981-0.856-1.614-0.719c-0.637,0.137-1.114,0.669-1.179,1.317l-1.389,13.86c-0.083,0.824,0.519,1.559,1.343,1.642   c0.818,0.081,1.559-0.519,1.642-1.343l0.923-9.214l5.402,9.396c0.261,0.455,0.741,0.74,1.265,0.752   c0.509,0.025,1.017-0.25,1.299-0.691l4.424-6.912l1.456,9.632c0.076,0.502,0.401,0.933,0.865,1.142c0.461,0.21,1,0.17,1.429-0.104   l10.892-6.986l-4.503,11.664c-0.177,0.458-0.118,0.974,0.157,1.38s0.731,0.653,1.223,0.66l11.398,0.152l-9.69,7.898   c-0.396,0.322-0.6,0.823-0.543,1.33c0.057,0.507,0.368,0.95,0.825,1.177l9.576,4.744l-13.589,2.734   c-0.453,0.091-0.839,0.386-1.045,0.799c-0.207,0.414-0.211,0.899-0.013,1.316l3.4,7.139l-7.281-2.679   c-0.775-0.287-1.639,0.112-1.926,0.89c-0.286,0.777,0.112,1.64,0.89,1.926l10.736,3.951c0.169,0.062,0.344,0.092,0.518,0.092   c0.414,0,0.819-0.172,1.109-0.489c0.411-0.451,0.508-1.105,0.246-1.656l-4.156-8.727l16.007-3.221   C302.343,43.478,302.822,42.966,302.906,42.33z"/><path d="M255.592,98.052c0.052,0.008,0.104,0.012,0.154,0.012c0.485,0,0.911-0.353,0.987-0.847   c0.362-2.345-0.043-4.302-1.205-5.817c-1.793-2.34-4.729-2.688-4.853-2.701c-0.553-0.053-1.039,0.334-1.101,0.881   c-0.063,0.547,0.331,1.042,0.878,1.107c0.022,0.002,2.236,0.282,3.499,1.944c0.809,1.064,1.079,2.504,0.805,4.281   C254.672,97.456,255.047,97.967,255.592,98.052z"/><path d="M260.009,98.237c0.064,0.013,0.128,0.019,0.191,0.019c0.469,0,0.888-0.332,0.98-0.81c0.674-3.47,0.2-6.4-1.407-8.709   c-2.447-3.515-6.615-4.236-6.791-4.266c-0.539-0.087-1.056,0.279-1.147,0.822c-0.091,0.543,0.276,1.059,0.82,1.151   c0.035,0.006,3.536,0.63,5.488,3.451c1.278,1.847,1.64,4.259,1.075,7.17C259.113,97.607,259.467,98.132,260.009,98.237z"/><path d="M357.245,117.127c-2.949,0.003-5.008,2.125-5.095,2.215c-0.38,0.398-0.365,1.027,0.031,1.409   c0.396,0.383,1.03,0.372,1.413-0.025c0.016-0.016,1.576-1.599,3.657-1.599c0.005,0,0.009,0,0.013,0   c1.336,0.004,2.645,0.664,3.89,1.961c0.196,0.205,0.459,0.308,0.722,0.308c0.249,0,0.498-0.092,0.692-0.278   c0.398-0.382,0.411-1.016,0.029-1.414c-1.641-1.71-3.438-2.577-5.346-2.577C357.25,117.127,357.247,117.127,357.245,117.127z"/><path d="M351.564,116.399c0.026-0.024,2.639-2.437,6.074-2.263c2.243,0.106,4.379,1.285,6.348,3.502   c0.198,0.223,0.473,0.336,0.748,0.336c0.236,0,0.474-0.083,0.664-0.252c0.413-0.367,0.45-0.999,0.084-1.412   c-2.348-2.643-4.963-4.047-7.774-4.173c-4.259-0.184-7.383,2.681-7.513,2.803c-0.401,0.378-0.42,1.008-0.044,1.411   C350.529,116.754,351.159,116.776,351.564,116.399z"/><path d="M408.654,124.956c-1.321-7.664-15.811-4.193-19.435,4.015C401.583,127.159,409.897,132.169,408.654,124.956z"/><path d="M387.486,113.148c-5.125-3.42-11.032,6.8-8.291,13.359C384.896,118.413,392.309,116.367,387.486,113.148z"/><path d="M387.951,141.987c8.651,0.353,13.668,4.831,13.747-0.24C401.782,136.36,391.472,136.864,387.951,141.987z"/></g></svg>